<svg width="60" height="60" viewBox="0 0 60 60" fill="none" xmlns="http://www.w3.org/2000/svg">
<path fill-rule="evenodd" clip-rule="evenodd" d="M22.1019 4.26355C22.4754 4.26512 22.844 4.34772 23.1825 4.50565C23.5209 4.66359 23.821 4.8931 24.0621 5.17833C26.7321 4.09772 29.5433 3.4046 32.4096 3.12005C32.432 2.93738 32.4702 2.75703 32.5239 2.581C30.0194 1.36175 27.3591 0.493256 24.6176 0C21.5657 0.549496 18.6174 1.56895 15.878 3.02204C17.4623 3.50116 19.0034 4.1132 20.4847 4.85162C20.9393 4.47401 21.5109 4.26613 22.1019 4.26355ZM36.5404 1.45986C36.0746 1.05422 35.4776 0.831535 34.86 0.833198C34.4407 1.03885 34.0808 1.3481 33.8145 1.73165C32.6683 1.11331 31.4843 0.567714 30.2696 0.0981083H31.2006H32.2134H32.3769H33.2101H33.3734H33.553L34.3044 0.196117H34.5495H34.6637L35.2845 0.294125H35.4969H35.7583L36.3627 0.408485L36.7384 0.490143L37.2449 0.604503H37.4899L37.8329 0.702511L38.2903 0.833198L38.6824 0.947558H38.7966L39.4501 1.1599L39.8912 1.30691L40.3159 1.47028L40.6262 1.58464H40.8386L41.4593 1.82966L41.835 1.99302L42.4394 2.25437L42.7989 2.41774L43.4033 2.71176L43.7627 2.89145L44.3507 3.21818L44.7101 3.4142L45.2818 3.75723L45.6413 3.9696L45.8537 4.10028C45.8332 4.17196 45.8079 4.24203 45.7828 4.3115C45.7279 4.4637 45.674 4.61302 45.674 4.77004C43.0057 3.81591 40.2188 3.23327 37.3918 3.03849C37.3087 2.42649 37.0061 1.8655 36.5404 1.45986ZM44.0241 8.46174C43.7924 8.46799 43.5621 8.50088 43.3379 8.55975C42.3344 7.39393 41.248 6.30206 40.0872 5.29266C41.795 5.58328 43.4732 6.0261 45.1021 6.61583C44.8734 7.23658 44.6284 7.85733 44.3507 8.46174H44.0241ZM51.6526 22.3468C51.6541 22.7264 51.5696 23.1014 51.4056 23.4437C51.2415 23.786 51.0021 24.0867 50.7052 24.3234C50.9994 26.0448 51.1469 27.788 51.1463 29.5344C51.1449 31.3741 50.9863 33.2103 50.6725 35.0231C54.1941 31.091 56.9627 26.545 58.8402 21.6117C58.1143 18.8973 57.0148 16.2969 55.5732 13.885L55.5713 13.882C55.4739 13.7197 55.3765 13.5573 55.2629 13.395C55.209 13.2934 55.1488 13.1952 55.083 13.1009L54.5767 12.3495L54.5324 12.3101C54.2516 12.0604 53.9567 11.7982 53.6618 11.5654C53.2574 14.7062 52.3818 17.7681 51.0646 20.6479C51.4592 21.1247 51.668 21.7281 51.6526 22.3468ZM59.6734 25.0913C59.6813 25.2055 59.6813 25.3201 59.6734 25.4343C59.8842 26.8185 59.9934 28.2162 60 29.6162C59.9876 37.5246 56.8606 45.1099 51.2961 50.7295C45.7316 56.349 38.1775 59.5505 30.2696 59.6407C34.5412 58.0687 38.4281 55.603 41.6705 52.4085C44.9129 49.2139 47.4362 45.3642 49.0717 41.1164H49.2023C49.8782 41.1164 50.5264 40.8479 51.0043 40.37C51.4823 39.8921 51.7507 39.2439 51.7507 38.5681C51.7524 38.1027 51.6283 37.6454 51.3914 37.2449C54.7984 33.6373 57.5955 29.4994 59.6734 24.9933C59.681 25.0255 59.681 25.0591 59.6734 25.0913ZM46.1474 12.3823C47.5152 14.5548 48.6123 16.8862 49.4145 19.3249C50.6821 16.417 51.4657 13.3214 51.7342 10.1607C50.2009 9.0683 48.5586 8.13764 46.8335 7.38365C46.5722 8.08607 46.2781 8.78851 45.9677 9.49093C46.3031 9.93194 46.4815 10.4725 46.4742 11.0265C46.5018 11.5008 46.388 11.9726 46.1474 12.3823ZM47.634 5.30901L48.3201 5.83174L48.5814 5.97875L47.634 5.55404V5.30901ZM34.86 5.94605C34.4905 5.94414 34.1257 5.86293 33.7903 5.70793C33.455 5.55293 33.1568 5.32775 32.9159 5.04759C30.0467 5.2842 27.2312 5.96192 24.5686 7.05684V7.36722C28.7524 10.4038 32.0327 14.5199 34.0593 19.2757H34.4516C34.7936 19.2727 35.1326 19.3394 35.448 19.4718C38.0018 17.5941 40.2123 15.2896 41.9822 12.6599C41.6163 12.1946 41.4202 11.6183 41.4266 11.0264C41.4202 10.5728 41.539 10.1263 41.7698 9.73585C40.2618 8.0182 38.5627 6.47817 36.7057 5.1456C36.4684 5.39731 36.1825 5.59808 35.8652 5.7357C35.5478 5.87331 35.2058 5.94489 34.86 5.94605ZM48.8264 24.8788C49.3834 28.6108 49.2617 32.4126 48.4671 36.1013C47.9357 36.2613 47.4711 36.5903 47.1438 37.0385C46.8166 37.4867 46.6445 38.0294 46.6539 38.5843C46.6378 38.7254 46.6378 38.8678 46.6539 39.009C42.2446 42.8136 37.0354 45.5773 31.4128 47.095L31.3312 46.997C33.4182 43.9821 34.9045 40.5934 35.709 37.016C36.112 36.8759 36.4731 36.6362 36.7587 36.3192C37.0443 36.0022 37.2451 35.6182 37.3426 35.2028C39.8409 33.8624 42.144 32.1861 44.1872 30.2205C45.868 28.6071 47.3687 26.816 48.6631 24.8788H48.8264ZM46.7683 41.4103L46.1966 41.8677C41.9351 45.1919 37.0453 47.6201 31.8214 49.0063C31.7248 49.6051 31.4191 50.1504 30.9585 50.5452C30.498 50.9399 29.9125 51.1587 29.3059 51.1625C28.8712 51.1592 28.4443 51.0469 28.0644 50.8358C25.5211 53.4164 22.5183 55.4994 19.2105 56.9779L19.2117 56.9787L19.2117 56.9788C19.9301 57.4522 20.6484 57.9257 21.4157 58.3501C22.4411 58.6492 23.4829 58.8891 24.5358 59.0689C29.4161 58.2019 34.0038 56.1338 37.8852 53.0509C41.7665 49.9681 44.8193 45.9676 46.7683 41.4103ZM47.6853 20.1126L47.7159 20.207L47.7648 20.06C47.7379 20.077 47.7114 20.0946 47.6853 20.1126ZM44.5795 13.5094C45.8837 15.5737 46.927 17.7917 47.6853 20.1126C47.4285 20.2895 47.2064 20.5126 47.0304 20.7707C46.8364 21.055 46.7025 21.376 46.6367 21.7138C46.571 22.0517 46.5749 22.3995 46.6481 22.7358C46.7213 23.0722 46.8623 23.3901 47.0625 23.6701C44.5043 27.5275 41.0738 30.7285 37.0488 33.0139C36.8618 32.737 36.6232 32.4986 36.3463 32.3115V30.4819C36.3433 28.2816 36.0857 26.0889 35.5786 23.9478C35.998 23.7355 36.35 23.4107 36.5952 23.0096C36.8404 22.6086 36.9692 22.1472 36.9671 21.6771C36.9632 21.3706 36.908 21.067 36.8038 20.7787L37.7512 20.0436C40.0722 18.1853 42.0942 15.9815 43.7463 13.5094H43.9914C44.1866 13.5353 44.3843 13.5353 44.5795 13.5094ZM34.3533 30.629V32.0665C33.7679 32.1772 33.2399 32.4895 32.8609 32.9491C32.4819 33.4087 32.2759 33.9865 32.2786 34.5821C32.2768 34.8145 32.3099 35.0457 32.3767 35.2682C29.1954 36.3778 25.8465 36.9304 22.4774 36.9018H21.2195H20.4845C20.4463 36.3978 20.2523 35.9182 19.9291 35.5296C20.2573 33.9168 20.4214 32.2749 20.4191 30.629C20.4138 29.6739 20.3593 28.7197 20.2558 27.7703C20.6969 27.4754 21.0386 27.054 21.2359 26.5614C25.1519 26.3048 28.9778 25.272 32.491 23.5231C32.7848 23.8413 33.1564 24.0777 33.5692 24.2091C34.086 26.3101 34.3492 28.4654 34.3533 30.629ZM22.1019 9.37652C21.6288 9.38058 21.1644 9.2503 20.7625 9.00081C18.7246 10.2273 16.8477 11.7035 15.1757 13.395C15.3937 13.7722 15.5065 14.2009 15.5023 14.6365C15.5014 14.9193 15.4574 15.2002 15.3717 15.4697C17.1389 17.7606 18.4932 20.3422 19.3738 23.0983C19.7926 23.1684 20.1877 23.3407 20.524 23.6C20.8602 23.8593 21.1272 24.1976 21.3015 24.5848C25.0184 24.3368 28.6442 23.3247 31.9522 21.6118C31.9763 21.154 32.1292 20.7123 32.3933 20.3376C30.5029 15.8155 27.4201 11.8915 23.474 8.98449C23.0622 9.24073 22.5869 9.37652 22.1019 9.37652ZM9.26206 51.3259L9.752 50.9992C10.0055 51.0793 10.2705 51.1179 10.5363 51.1135C11.4078 52.3424 12.3688 53.5053 13.4113 54.5929C11.9339 53.6294 10.5452 52.5361 9.26206 51.3259ZM23.9151 48.2058C24.8875 48.1783 25.8581 48.102 26.8228 47.9771C26.9703 47.4319 27.2936 46.9507 27.7425 46.6081C28.1915 46.2654 28.7411 46.0806 29.3059 46.0822H29.5509C31.4965 43.3128 32.8937 40.1965 33.6673 36.9017C30.103 38.2537 26.3224 38.9456 22.5103 38.9436H21.1709L19.8966 38.8619C19.5966 39.1994 19.2136 39.4527 18.7857 39.597C17.7315 42.3374 16.1933 44.8661 14.2444 47.0623C17.3927 47.9244 20.6525 48.3099 23.9151 48.2058ZM13.5419 12.1698C13.3225 12.1176 13.0977 12.0902 12.8721 12.0882C12.6629 12.0937 12.4549 12.1211 12.2514 12.1698C10.9341 10.9991 9.49359 9.97482 7.95515 9.11512L8.06961 8.98444L8.6086 8.41269L8.87003 8.16766L9.39267 7.66125L9.67045 7.3999L10.1931 6.92616L10.4872 6.68113L11.0262 6.22374L11.353 5.9787L11.892 5.55399L12.2187 5.30896L12.7579 4.91691L13.1335 4.67188L13.4765 4.44319C15.5778 4.90966 17.6135 5.63389 19.5371 6.59945C19.5283 6.67543 19.5283 6.75217 19.5371 6.82815C19.5121 7.01791 19.5121 7.21014 19.5371 7.3999C17.3451 8.72998 15.3306 10.3328 13.5419 12.1698ZM23.9641 50.1333H22.9187C19.6008 50.1415 16.2994 49.6683 13.1174 48.7285C13.0737 49.3462 12.8067 49.9269 12.366 50.3621C13.7729 52.2942 15.4197 54.0397 17.2667 55.5567C20.5349 54.2828 23.521 52.379 26.0551 49.9537C25.369 50.068 24.6992 50.117 23.9641 50.1333ZM16.7602 39.3685C15.6746 41.9671 14.1185 44.343 12.17 46.3764C11.2389 46.0497 10.3077 45.6739 9.39287 45.2656C8.02259 42.2703 7.18773 39.0581 6.92621 35.7747C7.20852 35.6291 7.46748 35.4418 7.69412 35.2193C10.1978 36.5613 12.8749 37.5508 15.6495 38.1597C15.8731 38.6762 16.2643 39.1021 16.7602 39.3685ZM12.8721 17.1686C12.5832 17.1623 12.2969 17.1128 12.0227 17.0216C10.9047 18.6081 9.95228 20.3049 9.1803 22.0856C9.38074 22.3004 9.54123 22.5494 9.65409 22.8207C11.6273 23.5963 13.6825 24.1444 15.7799 24.4542L16.5967 24.5359C16.7836 24.1698 17.0518 23.8513 17.3807 23.6048C16.6001 21.2547 15.4415 19.0476 13.9503 17.0706C13.6014 17.1767 13.2344 17.2101 12.8721 17.1686ZM3.77657 34.9091C4.06819 35.3378 4.48294 35.668 4.96603 35.8562C5.19815 38.6149 5.80256 41.3294 6.76289 43.9259C5.29334 43.0999 3.88003 42.1777 2.53207 41.1653C1.07101 37.3921 0.216356 33.4114 0 29.3711C1.08763 30.506 2.26191 31.5546 3.51216 32.5075C3.39474 32.8096 3.33385 33.1308 3.33249 33.4549C3.33014 33.9734 3.48495 34.4804 3.77657 34.9091ZM7.71027 26.3654C7.31562 27.9306 7.05336 29.5262 6.92621 31.1353C7.3514 31.3397 7.71288 31.6559 7.9719 32.0502C8.23091 32.4445 8.37772 32.9019 8.39643 33.3733C10.6709 34.6118 13.0986 35.5455 15.6168 36.1503C15.8048 35.6736 16.1306 35.2638 16.5524 34.9728C16.9742 34.6819 17.473 34.5231 17.9853 34.5167H18.1486C18.3697 33.2105 18.4845 31.8884 18.4918 30.5636C18.4927 29.7283 18.4434 28.8937 18.3447 28.0643C17.9228 27.9686 17.5315 27.7691 17.2062 27.4838C16.881 27.1985 16.6324 26.8365 16.4826 26.4307L15.5187 26.3327C13.5093 26.0549 11.5334 25.5732 9.62159 24.8952C9.44795 25.2781 9.18277 25.6125 8.84949 25.8689C8.5162 26.1253 8.12496 26.2958 7.71027 26.3654ZM10.4709 15.731C9.22283 17.472 8.16057 19.339 7.30169 21.3014C7.18033 21.161 7.04331 21.0349 6.8933 20.9257C5.28829 20.0734 3.77734 19.055 2.38491 17.8873L2.51552 17.5442C2.52751 17.5203 2.54145 17.4953 2.55567 17.4699C2.59957 17.3913 2.64613 17.3079 2.64613 17.2339V17.1522C2.69658 17.0518 2.74036 16.9481 2.77694 16.8418L2.94026 16.5151V16.3844C2.99349 16.2967 3.03723 16.2037 3.07087 16.1067L3.21783 15.8127L3.36499 15.5187L3.67527 14.9469L3.9367 14.4568C4.24707 13.8688 4.57372 13.3297 4.90043 12.8233L5.06374 12.5783C5.10568 12.5266 5.144 12.472 5.1782 12.4149L5.45598 12.0392L5.76626 11.5981L5.76737 11.5966L5.76738 11.5966C5.94669 11.3521 6.12599 11.1076 6.3216 10.8794L6.51762 10.618C7.95705 11.4047 9.30963 12.341 10.5526 13.4114C10.3367 13.7834 10.2238 14.2064 10.2258 14.6365C10.2293 15.0146 10.3129 15.3876 10.4709 15.731ZM4.86767 31.1026C5.00595 29.3666 5.29013 27.6453 5.71714 25.9569C5.39286 25.7169 5.12939 25.4042 4.94783 25.0439C4.76627 24.6836 4.67164 24.2858 4.67165 23.8823C4.66992 23.5213 4.74804 23.1643 4.90037 22.8369C3.62276 22.104 2.39987 21.2796 1.24125 20.3702V20.5172V20.7459V20.8276C1.06156 21.432 0.898327 22.0364 0.751308 22.6245V22.8369V23.0819V23.1963C0.743634 23.2778 0.743634 23.3598 0.751308 23.4413V23.7026V24.1274C0.751308 24.3352 0.704971 24.543 0.658636 24.7509C0.632131 24.8697 0.605626 24.9886 0.587794 25.1075V25.4342V25.6956V25.9243V26.153C0.578832 26.2453 0.578832 26.3383 0.587794 26.4307C1.84335 28.1365 3.27817 29.7027 4.86767 31.1026ZM3.87129 44.4977C5.17085 45.337 6.52413 46.0901 7.92244 46.752L8.29833 47.5198C8.1407 47.8576 8.05712 48.2252 8.05326 48.5979C8.05584 48.9516 8.128 49.3012 8.26562 49.627L7.84089 49.9047C6.32149 48.255 4.99006 46.4415 3.87129 44.4977Z" fill="white"/>
</svg>
