<svg width="61" height="55" viewBox="0 0 61 55" fill="none" xmlns="http://www.w3.org/2000/svg">
<path d="M15.7558 31.7454C18.4638 32.7597 20.7637 34.6352 22.302 37.0837C23.8403 39.5322 24.5319 42.4182 24.2705 45.298C24.0718 48.2213 24.7956 50.2081 26.4275 51.2298C29.4786 53.1314 41.8959 51.7123 50.1693 44.8438C55.4626 40.4588 60.7132 32.384 55.7322 18.8599C49.3462 1.56095 32.8845 1.74543 26.1011 2.62528C14.1238 4.1863 3.0406 11.2961 2.38781 17.8524C1.66406 25.0756 9.27048 29.4039 15.77 31.7454H15.7558ZM48.1967 22.0245C48.9282 22.0161 49.6457 22.2253 50.2581 22.6256C50.8704 23.0258 51.3499 23.5991 51.6357 24.2725C51.9215 24.9459 52.0007 25.6891 51.8632 26.4076C51.7257 27.1261 51.3777 27.7875 50.8634 28.3078C50.3491 28.8281 49.6918 29.1838 48.9749 29.3296C48.258 29.4755 47.514 29.4049 46.8373 29.1269C46.1606 28.849 45.5818 28.3761 45.1745 27.7685C44.7672 27.1608 44.5496 26.4458 44.5496 25.7142C44.5458 24.7419 44.9275 23.8076 45.611 23.1161C46.2946 22.4245 47.2244 22.032 48.1967 22.0245ZM40.4625 10.771C41.194 10.7625 41.9116 10.9718 42.5239 11.372C43.1362 11.7723 43.6158 12.3455 43.9016 13.0189C44.1874 13.6924 44.2665 14.4355 44.129 15.154C43.9915 15.8726 43.6435 16.534 43.1292 17.0543C42.6149 17.5745 41.9576 17.9302 41.2407 18.076C40.5239 18.2219 39.7798 18.1514 39.1031 17.8734C38.4265 17.5954 37.8477 17.1226 37.4403 16.5149C37.033 15.9072 36.8155 15.1922 36.8154 14.4607C36.8116 13.4908 37.1913 12.5586 37.8719 11.8675C38.5524 11.1764 39.4785 10.7822 40.4484 10.771H40.4625ZM32.2033 37.5496C33.0224 37.5383 33.8263 37.771 34.5129 38.2178C35.1994 38.6647 35.7375 39.3056 36.0588 40.0592C36.3801 40.8127 36.47 41.6447 36.3171 42.4495C36.1643 43.2543 35.7755 43.9954 35.2003 44.5786C34.6251 45.1619 33.8894 45.5608 33.0869 45.7248C32.2843 45.8888 31.451 45.8104 30.6931 45.4996C29.9352 45.1888 29.2869 44.6596 28.8306 43.9793C28.3742 43.299 28.1305 42.4984 28.1305 41.6792C28.1266 40.5951 28.5508 39.5532 29.3107 38.7799C30.0707 38.0067 31.1051 37.5645 32.1891 37.5496H32.2033ZM26.5269 5.83249C27.2584 5.82405 27.9759 6.03325 28.5882 6.43351C29.2006 6.83378 29.6801 7.40703 29.9659 8.08044C30.2517 8.75386 30.3309 9.49703 30.1934 10.2155C30.0559 10.9341 29.7078 11.5955 29.1935 12.1157C28.6793 12.636 28.022 12.9917 27.3051 13.1375C26.5882 13.2834 25.8441 13.2129 25.1675 12.9349C24.4908 12.6569 23.912 12.1841 23.5047 11.5764C23.0973 10.9687 22.8798 10.2537 22.8798 9.52216C22.8779 9.0359 22.9725 8.55411 23.1581 8.10468C23.3438 7.65524 23.6168 7.24711 23.9613 6.90392C24.3058 6.56074 24.7149 6.28933 25.1651 6.10541C25.6152 5.9215 26.0974 5.82873 26.5836 5.83249H26.5269ZM12.9176 12.7152C13.6491 12.7067 14.3666 12.9159 14.979 13.3162C15.5913 13.7165 16.0708 14.2897 16.3566 14.9631C16.6424 15.6365 16.7216 16.3797 16.5841 17.0982C16.4466 17.8167 16.0986 18.4782 15.5843 18.9984C15.07 19.5187 14.4127 19.8744 13.6958 20.0202C12.9789 20.1661 12.2349 20.0955 11.5582 19.8176C10.8815 19.5396 10.3027 19.0668 9.89539 18.4591C9.48805 17.8514 9.27055 17.1364 9.2705 16.4049C9.26861 15.9186 9.36322 15.4368 9.54886 14.9874C9.73451 14.5379 10.0075 14.1298 10.352 13.7866C10.6965 13.4434 11.1057 13.172 11.5558 12.9881C12.006 12.8042 12.4881 12.7114 12.9744 12.7152H12.9176Z" fill="white"/>
<path d="M48.1967 28.2544C48.7003 28.2601 49.1941 28.1159 49.6156 27.8402C50.037 27.5645 50.3671 27.1698 50.5637 26.7061C50.7603 26.2425 50.8147 25.7309 50.7199 25.2363C50.6251 24.7417 50.3854 24.2864 50.0313 23.9283C49.6772 23.5702 49.2247 23.3254 48.7312 23.2251C48.2377 23.1248 47.7255 23.1734 47.2596 23.3648C46.7938 23.5562 46.3954 23.8817 46.115 24.3C45.8346 24.7184 45.6849 25.2106 45.6849 25.7142C45.6848 26.383 45.9486 27.0249 46.4188 27.5005C46.8891 27.976 47.5279 28.247 48.1967 28.2544Z" fill="white"/>
<path d="M14.9894 33.9309C17.2198 34.7778 19.1107 36.3332 20.372 38.3584C21.6332 40.3835 22.1951 42.7666 21.9714 45.1419C21.7159 48.9877 22.8086 51.684 25.2069 53.1883C26.8829 54.0035 28.7385 54.3795 30.5996 54.281C38.2492 54.1 45.6279 51.4127 51.6024 46.632C57.4633 41.7644 63.3101 32.8524 57.8607 18.0511C52.0707 2.34153 38.504 0 30.8976 0C29.1754 0.00222829 27.4549 0.11123 25.7462 0.326389C12.364 2.0719 0.840822 9.83444 0.0603112 17.6112C-0.422186 22.422 1.76325 29.1627 14.9468 33.9309H14.9894ZM1.1956 17.7389C1.91935 10.5724 13.2297 3.13624 25.9023 1.49007C32.9979 0.567649 50.0272 0.383163 56.7396 18.5194C61.9619 32.7105 56.399 41.2252 50.8219 45.7947C45.0446 50.3847 37.933 52.9744 30.557 53.1741C28.9102 53.2806 27.2637 52.963 25.7746 52.2516C23.7595 51.0028 22.8512 48.6471 23.0783 45.2838C23.3233 42.6532 22.6979 40.0149 21.2981 37.7742C19.8983 35.5335 17.8015 33.8143 15.3299 32.8808C5.4955 29.2621 0.613767 24.0397 1.23818 17.7389H1.1956Z" fill="white"/>
<path d="M32.189 44.6452C32.7807 44.6536 33.3616 44.4857 33.8576 44.1628C34.3535 43.8399 34.7421 43.3766 34.9738 42.832C35.2055 42.2874 35.2698 41.6862 35.1585 41.1049C35.0472 40.5237 34.7654 39.9887 34.3489 39.5682C33.9324 39.1477 33.4002 38.8608 32.8201 38.7439C32.2399 38.627 31.638 38.6855 31.0913 38.912C30.5445 39.1384 30.0775 39.5225 29.7498 40.0154C29.4222 40.5082 29.2486 41.0874 29.2514 41.6792C29.2514 42.4609 29.56 43.2111 30.1101 43.7665C30.6602 44.3219 31.4073 44.6377 32.189 44.6452Z" fill="white"/>
<path d="M40.4482 17.0009C40.9518 17.0065 41.4457 16.8623 41.8671 16.5867C42.2886 16.311 42.6186 15.9163 42.8152 15.4526C43.0118 14.989 43.0662 14.4774 42.9714 13.9827C42.8766 13.4881 42.637 13.0329 42.2829 12.6748C41.9288 12.3167 41.4762 12.0719 40.9827 11.9716C40.4892 11.8712 39.977 11.9198 39.5112 12.1112C39.0453 12.3026 38.6469 12.6282 38.3665 13.0465C38.0861 13.4648 37.9364 13.9571 37.9364 14.4607C37.9363 15.1295 38.2001 15.7714 38.6703 16.2469C39.1406 16.7225 39.7794 16.9934 40.4482 17.0009Z" fill="white"/>
<path d="M12.9742 18.9451C13.4778 18.9507 13.9717 18.8065 14.3931 18.5309C14.8146 18.2552 15.1446 17.8604 15.3412 17.3968C15.5378 16.9332 15.5922 16.4215 15.4974 15.9269C15.4026 15.4323 15.163 14.977 14.8089 14.6189C14.4548 14.2608 14.0022 14.0161 13.5087 13.9158C13.0152 13.8154 12.503 13.864 12.0372 14.0554C11.5714 14.2468 11.173 14.5724 10.8926 14.9907C10.6122 15.409 10.4624 15.9013 10.4624 16.4049C10.4624 17.0737 10.7261 17.7155 11.1963 18.1911C11.6666 18.6667 12.3054 18.9376 12.9742 18.9451Z" fill="white"/>
<path d="M26.5835 12.0766C27.0904 12.085 27.5884 11.9424 28.0141 11.6669C28.4397 11.3914 28.7737 10.9955 28.9736 10.5296C29.1735 10.0636 29.2302 9.54874 29.1365 9.05046C29.0428 8.55219 28.8029 8.09306 28.4474 7.73154C28.0919 7.37003 27.6369 7.12249 27.1403 7.02043C26.6437 6.91837 26.1279 6.96641 25.6586 7.15843C25.1894 7.35045 24.7879 7.67777 24.5053 8.09871C24.2227 8.51965 24.0717 9.01516 24.0717 9.52217C24.0679 10.1934 24.33 10.8389 24.8006 11.3176C25.2713 11.7962 25.9122 12.0691 26.5835 12.0766Z" fill="white"/>
</svg>
