<svg width="60" height="65" viewBox="0 0 60 65" fill="none" xmlns="http://www.w3.org/2000/svg">
<path d="M21.8469 53.6423C21.3384 53.6402 20.8345 53.7395 20.3643 53.9345C19.8942 54.1296 19.4671 54.4165 19.1076 54.7788C18.748 55.141 18.4632 55.5713 18.2696 56.045C18.0759 56.5187 17.9773 57.0263 17.9794 57.5386V61.0532H33.0228V57.5386C33.0249 57.0277 32.9268 56.5213 32.7342 56.0487C32.5416 55.5761 32.2583 55.1464 31.9004 54.7844C31.5425 54.4224 31.1172 54.1352 30.6489 53.9392C30.1805 53.7431 29.6784 53.6423 29.1713 53.6423H21.8469ZM3.85156 53.6423C3.34443 53.6423 2.84233 53.7431 2.374 53.9392C1.90567 54.1352 1.48033 54.4224 1.12246 54.7844C0.764601 55.1464 0.481317 55.5761 0.288685 56.0487C0.0960537 56.5213 -0.00204607 57.0277 3.23472e-05 57.5386V61.0532H15.0433V57.5386C15.0454 57.0263 14.9469 56.5187 14.7533 56.045C14.5597 55.5713 14.2748 55.141 13.9153 54.7788C13.5558 54.4165 13.1285 54.1296 12.6584 53.9345C12.1882 53.7395 11.6844 53.6402 11.176 53.6423H3.85156ZM42.1468 52.529C41.3344 52.5269 40.5296 52.6869 39.7788 52.9996C39.028 53.3123 38.3461 53.7717 37.7723 54.3512C37.1986 54.9307 36.7443 55.6189 36.4358 56.3762C36.1273 57.1334 35.9705 57.9446 35.9747 58.7631V64.3771H59.9999V58.7631C60.0041 57.9459 59.8481 57.136 59.5405 56.3798C59.233 55.6237 58.7802 54.9362 58.2081 54.3569C57.636 53.7776 56.9559 53.3178 56.207 53.0042C55.458 52.6905 54.6549 52.529 53.8438 52.529H42.1468ZM25.509 41.5875C24.49 41.6557 23.513 42.0223 22.698 42.6424C21.883 43.2624 21.2657 44.1088 20.9218 45.0776C20.5778 46.0463 20.5223 47.0952 20.762 48.0953C21.0018 49.0954 21.5263 50.0032 22.2712 50.707C23.0161 51.4109 23.949 51.8801 24.955 52.057C25.961 52.234 26.9965 52.111 27.934 51.7031C28.8716 51.2952 29.6703 50.6203 30.2323 49.7612C30.7942 48.9021 31.0948 47.8963 31.0971 46.8674C31.0476 45.4219 30.432 44.0549 29.3848 43.0654C28.3376 42.076 26.944 41.5446 25.509 41.5875ZM7.51368 41.5875C6.49561 41.6587 5.52047 42.0278 4.70769 42.6496C3.89492 43.2713 3.27997 44.1186 2.93839 45.0875C2.59682 46.0563 2.54345 47.1045 2.78482 48.1035C3.02619 49.1025 3.55171 50.0087 4.29707 50.711C5.04242 51.4133 5.97521 51.8811 6.98069 52.0569C7.98617 52.2327 9.02074 52.1089 9.9574 51.7008C10.894 51.2926 11.6919 50.6178 12.2533 49.7592C12.8147 48.9006 13.1151 47.8956 13.1175 46.8674C13.0681 45.419 12.4503 44.0495 11.3997 43.0596C10.3491 42.0697 8.9514 41.5403 7.51368 41.5875ZM47.9873 34.5264C46.3567 34.6349 44.7933 35.2213 43.4891 36.2133C42.1849 37.2054 41.1969 38.56 40.6469 40.1103C40.0968 41.6606 40.0087 43.3391 40.3931 44.9392C40.7775 46.5394 41.6178 47.9915 42.8106 49.1168C44.0035 50.2422 45.4968 50.9917 47.1069 51.2731C48.717 51.5546 50.3737 51.3557 51.8731 50.701C53.3725 50.0463 54.6492 48.9643 55.5462 47.5881C56.4432 46.2119 56.9214 44.6016 56.9219 42.9552C56.8436 40.6448 55.859 38.46 54.1841 36.88C52.5092 35.2999 50.2807 34.4534 47.9873 34.5264ZM24.3093 0.000146656C21.6148 -0.0111598 18.9572 0.631438 16.5613 1.87363C14.1654 3.11582 12.1017 4.92104 10.5447 7.13662C8.98769 9.35221 7.98306 11.913 7.61599 14.6024C7.24893 17.2918 7.53023 20.0306 8.4359 22.5874C9.34157 25.1441 10.8451 27.4436 12.8193 29.2912C14.7934 31.1388 17.1802 32.4802 19.7778 33.202C22.3753 33.9238 25.1071 34.0048 27.7423 33.4381C30.3775 32.8714 32.8386 31.6737 34.9172 29.9462L41.0575 32.2363L38.1689 26.3361C39.8574 23.7957 40.8313 20.8417 40.9868 17.7883C41.1423 14.7348 40.4737 11.696 39.0522 8.99472C37.6306 6.29345 35.5093 4.0307 32.9134 2.44695C30.3175 0.863204 27.344 0.0176405 24.3093 0.000146656Z" fill="white"/>
</svg>
