<svg width="60" height="72" viewBox="0 0 60 72" fill="none" xmlns="http://www.w3.org/2000/svg">
<path fill-rule="evenodd" clip-rule="evenodd" d="M42.2973 0.273894C42.3256 0.174563 42.2793 0.069156 42.187 0.022844C42.0946 -0.023468 41.9824 0.00240124 41.9197 0.0844573L24.8899 22.3658V14.465C24.9056 14.4625 24.9213 14.4596 24.937 14.4565C25.1973 14.4047 25.4365 14.2769 25.6242 14.0892C25.8118 13.9015 25.9397 13.6624 25.9915 13.402C26.0432 13.1417 26.0167 12.8719 25.9151 12.6266C25.8135 12.3814 25.6414 12.1717 25.4207 12.0243C25.2 11.8768 24.9406 11.7981 24.6751 11.7981C24.3192 11.7981 23.9778 11.9395 23.7261 12.1912C23.4744 12.4429 23.333 12.7843 23.333 13.1402C23.333 13.4057 23.4118 13.6651 23.5592 13.8858C23.7067 14.1066 23.9163 14.2786 24.1616 14.3801C24.2579 14.42 24.358 14.4484 24.4599 14.4649V21.9818L17.0547 14.5422V9.34092C17.0547 9.28406 17.0322 9.22952 16.9921 9.18923L13.0411 5.22046C13.2101 4.99599 13.3102 4.71681 13.3102 4.41425C13.3102 3.67303 12.7093 3.07215 11.9681 3.07215C11.2269 3.07215 10.626 3.67303 10.626 4.41425C10.626 5.15546 11.2269 5.75634 11.9681 5.75634C12.2515 5.75634 12.5144 5.66848 12.7311 5.5185L16.6247 9.42969V14.631C16.6247 14.6878 16.6472 14.7424 16.6874 14.7827L24.4599 22.5913V22.9284L21.3575 26.9875L14.5927 20.2054C14.5524 20.1649 14.4976 20.1422 14.4405 20.1422H13.2937L8.08501 14.8976C8.04465 14.857 7.98974 14.8341 7.93246 14.8341H3.22411C3.10537 14.8341 3.00911 14.9304 3.00911 15.0491C3.00911 15.1678 3.10537 15.2641 3.22411 15.2641H7.84297L12.6877 20.1422H3.22411C3.10537 20.1422 3.00911 20.2385 3.00911 20.3572C3.00911 20.4759 3.10537 20.5722 3.22411 20.5722H13.1965C13.2018 20.5724 13.207 20.5724 13.2122 20.5722H14.3513L21.094 27.3323L14.015 36.5943H12.5647V26.6291C12.5647 26.5103 12.4684 26.4141 12.3497 26.4141H6.60515C6.48641 26.4141 6.39015 26.5103 6.39015 26.6291C6.39015 26.7478 6.48641 26.8441 6.60515 26.8441H12.1347V36.8093C12.1347 36.928 12.231 37.0243 12.3497 37.0243H13.6863L11.0882 40.4235C11.0386 40.4885 11.0301 40.576 11.0663 40.6494C11.1026 40.7227 11.1773 40.7691 11.2591 40.7691H18.9591L12.2583 47.7197H8.25723C8.2124 47.4435 8.08193 47.1862 7.88149 46.9857C7.62979 46.7341 7.28841 46.5927 6.93247 46.5927C6.57652 46.5927 6.23514 46.7341 5.98344 46.9857C5.73175 47.2374 5.59038 47.5788 5.59038 47.9347C5.59038 48.2907 5.73175 48.632 5.98344 48.8837C6.23514 49.1354 6.57652 49.2768 6.93247 49.2768C7.28841 49.2768 7.62979 49.1354 7.88149 48.8837C8.08193 48.6833 8.2124 48.426 8.25723 48.1497H12.3497C12.4081 48.1497 12.464 48.126 12.5045 48.084L17.1885 43.2253V55.7548H8.9867C8.86795 55.7548 8.7717 55.8511 8.7717 55.9698C8.7717 56.0886 8.86795 56.1848 8.9867 56.1848H13.9344V61.8799L9.61624 66.1981C9.6097 66.2046 9.60368 66.2114 9.59816 66.2186C9.35979 66.0243 9.06061 65.9169 8.75036 65.9169C8.39442 65.9169 8.05303 66.0583 7.80134 66.31C7.54964 66.5617 7.40827 66.9031 7.40827 67.259C7.40827 67.6149 7.54964 67.9563 7.80134 68.208C8.05303 68.4597 8.39442 68.6011 8.75036 68.6011C9.1063 68.6011 9.44769 68.4597 9.69938 68.208C9.95108 67.9563 10.0924 67.6149 10.0924 67.259C10.0924 67 10.0176 66.7486 9.87978 66.534C9.89421 66.5252 9.90783 66.5146 9.92029 66.5021L14.3014 62.121C14.3417 62.0807 14.3644 62.026 14.3644 61.969V56.1848H17.4035C17.5223 56.1848 17.6185 56.0886 17.6185 55.9698V42.7792L19.5564 40.7691H24.4054V56.8812L18.2142 63.1265C18.2071 63.1336 18.2006 63.1411 18.1947 63.1489C18.0313 63.0805 17.8551 63.0447 17.6762 63.0447L17.6728 63.0447C17.3195 63.0503 16.9821 63.1931 16.7323 63.443C16.4824 63.6928 16.3396 64.0301 16.334 64.3834L16.549 64.3868H16.334C16.334 64.6523 16.4127 64.9117 16.5602 65.1324C16.7076 65.3531 16.9173 65.5252 17.1625 65.6267C17.4077 65.7283 17.6776 65.7549 17.9379 65.7031C18.1983 65.6513 18.4374 65.5235 18.6251 65.3358C18.8128 65.1481 18.9406 64.909 18.9924 64.6486C19.0442 64.3883 19.0176 64.1184 18.916 63.8732C18.8378 63.6844 18.7179 63.5167 18.5661 63.3822L24.7731 57.1211C24.813 57.0808 24.8354 57.0264 24.8354 56.9697V40.7691H32.9841L23.724 71.3961C23.6928 71.4994 23.7429 71.6098 23.8413 71.6543C23.9396 71.6987 24.0557 71.6633 24.1125 71.5716L34.8036 54.3227V56.9697C34.8036 57.0265 34.8261 57.081 34.8662 57.1213L41.0912 63.3825C40.9396 63.5169 40.8197 63.6845 40.7416 63.8732C40.64 64.1184 40.6134 64.3883 40.6652 64.6486C40.717 64.909 40.8448 65.1481 41.0325 65.3358C41.2202 65.5235 41.4593 65.6513 41.7197 65.7031C41.98 65.7549 42.2499 65.7283 42.4951 65.6267C42.7403 65.5252 42.95 65.3531 43.0974 65.1324C43.2449 64.9117 43.3236 64.6523 43.3236 64.3868H43.1086L43.3236 64.3834C43.318 64.0301 43.1752 63.6928 42.9254 63.443C42.6755 63.1931 42.3382 63.0503 41.9849 63.0447H41.9815C41.8025 63.0447 41.6261 63.0805 41.4626 63.1491C41.4566 63.1411 41.45 63.1335 41.4428 63.1262L35.2336 56.881V53.629L41.9828 42.7399L42.0211 42.7795V55.9698C42.0211 56.0886 42.1173 56.1848 42.2361 56.1848H45.2929V61.969C45.2929 62.0258 45.3154 62.0804 45.3556 62.1207L49.7185 66.5018L49.7232 66.5064C49.5738 66.727 49.4924 66.9888 49.4924 67.259C49.4924 67.6149 49.6337 67.9563 49.8854 68.208C50.1371 68.4597 50.4785 68.6011 50.8344 68.6011C51.1904 68.6011 51.5318 68.4597 51.7835 68.208C52.0352 67.9563 52.1765 67.6149 52.1765 67.259C52.1765 66.9031 52.0352 66.5617 51.7835 66.31C51.5318 66.0583 51.1904 65.9169 50.8344 65.9169C50.5378 65.9169 50.2513 66.0151 50.0183 66.1935L45.7229 61.8802V56.1848H50.6711C50.7898 56.1848 50.8861 56.0886 50.8861 55.9698C50.8861 55.8511 50.7898 55.7548 50.6711 55.7548H42.4511V43.2256L47.1348 48.084C47.1753 48.126 47.2312 48.1497 47.2896 48.1497H51.455C51.4998 48.426 51.6304 48.6833 51.8308 48.8837C52.0825 49.1354 52.4239 49.2768 52.7798 49.2768C53.1358 49.2768 53.4771 49.1354 53.7287 48.8837C53.9804 48.6321 54.1219 48.2907 54.1219 47.9347C54.1219 47.5788 53.9804 47.2374 53.7287 46.9857C53.4771 46.7341 53.1358 46.5927 52.7798 46.5927C52.4239 46.5927 52.0825 46.7341 51.8308 46.9857C51.6304 47.1862 51.4998 47.4435 51.455 47.7197H47.381L42.2166 42.3628L45.5255 37.0243H47.2894C47.4081 37.0243 47.5044 36.928 47.5044 36.8093V33.8316L48.5632 32.1233C48.6043 32.0569 48.6063 31.9736 48.5683 31.9054C48.5304 31.8373 48.4585 31.795 48.3805 31.795H47.5044V26.8441H53.0521C53.1708 26.8441 53.2671 26.7478 53.2671 26.6291C53.2671 26.5103 53.1708 26.4141 53.0521 26.4141H47.2894C47.1706 26.4141 47.0744 26.5103 47.0744 26.6291V31.795H38.3785V27.5175L45.2882 20.5722H46.4454L46.4543 20.5723L46.4611 20.5722H56.4152C56.5339 20.5722 56.6302 20.4759 56.6302 20.3572C56.6302 20.2385 56.5339 20.1422 56.4152 20.1422H46.9699L51.8146 15.2641H56.4153C56.534 15.2641 56.6303 15.1678 56.6303 15.0491C56.6303 14.9304 56.534 14.8341 56.4153 14.8341H51.7251C51.6679 14.8341 51.613 14.857 51.5726 14.8976L46.3639 20.1422H45.1988C45.1416 20.1422 45.0867 20.165 45.0464 20.2056L38.0111 27.2772C37.971 27.3175 37.9485 27.372 37.9485 27.4288V31.795H35.1972V25.2098L36.2416 21.5421L42.9697 14.7827C43.0098 14.7424 43.0324 14.6878 43.0324 14.631V9.42941L46.9263 5.5002C47.0728 5.60146 47.2386 5.67307 47.4145 5.7099C47.6734 5.76411 47.9426 5.74059 48.1882 5.64232C48.4338 5.54404 48.6448 5.37538 48.7948 5.15757C48.9448 4.93973 49.0271 4.6824 49.0314 4.41793C49.0343 4.23994 49.0018 4.06308 48.9356 3.89767C48.8694 3.73233 48.771 3.58182 48.6461 3.4549C48.5212 3.32796 48.3723 3.22717 48.208 3.15838C48.0438 3.08959 47.8674 3.05415 47.6893 3.05418C47.4248 3.05421 47.1662 3.13241 46.946 3.27895C46.7258 3.42549 46.5538 3.63384 46.4516 3.87782C46.3494 4.1218 46.3216 4.39053 46.3717 4.65026C46.4104 4.85119 46.4944 5.03976 46.6163 5.20212L42.6646 9.18958C42.6247 9.22984 42.6024 9.28423 42.6024 9.34092V14.5422L36.4846 20.6883L42.2973 0.273894ZM34.7672 31.795H33.3222L34.7672 26.72V31.795ZM45.792 36.5943L47.0744 34.5253V36.5943H45.792ZM47.6894 3.48418C47.8104 3.48416 47.9303 3.50824 48.0419 3.555C48.1536 3.60176 48.2548 3.67026 48.3397 3.75651C48.4246 3.84278 48.4914 3.94506 48.5364 4.05742C48.5813 4.16971 48.6034 4.2899 48.6015 4.41099C48.5986 4.59073 48.5426 4.76562 48.4407 4.91366C48.3387 5.06174 48.1953 5.17633 48.0285 5.2431C47.8616 5.30988 47.6786 5.32586 47.5026 5.28903C47.3267 5.2522 47.1656 5.16419 47.0395 5.03604C46.9134 4.90789 46.8279 4.74536 46.7939 4.56889C46.7599 4.39237 46.7788 4.20973 46.8482 4.04393C46.9177 3.87812 47.0346 3.73652 47.1842 3.63693C47.3339 3.53734 47.5096 3.4842 47.6894 3.48418ZM7.57743 47.2898C7.71284 47.4252 7.80126 47.5988 7.83222 47.7853C7.7948 47.824 7.77176 47.8767 7.77176 47.9347C7.77176 47.9928 7.79479 48.0455 7.83222 48.0842C7.80125 48.2707 7.71283 48.4443 7.57743 48.5797C7.40638 48.7507 7.17437 48.8468 6.93247 48.8468C6.69056 48.8468 6.45855 48.7507 6.2875 48.5797C6.11646 48.4086 6.02038 48.1767 6.02038 47.9347C6.02038 47.6928 6.11646 47.4608 6.2875 47.2898C6.45855 47.1188 6.69056 47.0227 6.93247 47.0227C7.17437 47.0227 7.40638 47.1188 7.57743 47.2898ZM58.3062 14.137C58.0643 14.137 57.8323 14.2331 57.6612 14.4042C57.4902 14.5752 57.3941 14.8072 57.3941 15.0491C57.3941 15.291 57.4902 15.523 57.6612 15.6941C57.8323 15.8651 58.0643 15.9612 58.3062 15.9612H58.3097V15.9612C58.4296 15.9632 58.5486 15.9411 58.6597 15.8961C58.7708 15.8512 58.8718 15.7843 58.9566 15.6995C59.0414 15.6147 59.1082 15.5138 59.1532 15.4027C59.1981 15.2916 59.2203 15.1725 59.2183 15.0527L59.4333 15.0491H59.2183C59.2183 14.8072 59.1222 14.5752 58.9511 14.4042C58.7801 14.2331 58.5481 14.137 58.3062 14.137ZM59.6483 15.0473C59.6478 14.6921 59.5065 14.3514 59.2552 14.1001C59.0035 13.8484 58.6621 13.707 58.3062 13.707C57.9502 13.707 57.6088 13.8484 57.3572 14.1001C57.1055 14.3518 56.9641 14.6932 56.9641 15.0491C56.9641 15.4051 57.1055 15.7464 57.3572 15.9981C57.6084 16.2494 57.9491 16.3907 58.3044 16.3912C58.4813 16.3939 58.6569 16.3611 58.821 16.2947C58.9856 16.2282 59.1351 16.1291 59.2606 16.0036C59.3862 15.8781 59.4852 15.7286 59.5518 15.564C59.6182 15.3999 59.651 15.2243 59.6483 15.0473ZM57.6612 19.6941C57.8323 19.523 58.0643 19.4269 58.3062 19.4269C58.5481 19.4269 58.7801 19.523 58.9511 19.6941C59.1222 19.8651 59.2183 20.0971 59.2183 20.339H59.4333L59.2183 20.3426C59.2203 20.4624 59.1981 20.5815 59.1532 20.6926C59.1082 20.8037 59.0414 20.9047 58.9566 20.9894C58.8718 21.0742 58.7709 21.141 58.6597 21.186C58.5486 21.231 58.4296 21.2531 58.3097 21.2512V21.2511H58.3062C58.0643 21.2511 57.8323 21.155 57.6612 20.984C57.4902 20.8129 57.3941 20.5809 57.3941 20.339C57.3941 20.0971 57.4902 19.8651 57.6612 19.6941ZM59.2552 19.39C59.5065 19.6413 59.6478 19.9819 59.6483 20.3372C59.651 20.5141 59.6182 20.6898 59.5518 20.8539C59.4852 21.0185 59.3862 21.168 59.2606 21.2935C59.1351 21.419 58.9855 21.518 58.821 21.5846C58.657 21.651 58.4813 21.6838 58.3044 21.6811C57.9491 21.6807 57.6084 21.5393 57.3572 21.288C57.1055 21.0363 56.9641 20.6949 56.9641 20.339C56.9641 19.9831 57.1055 19.6417 57.3572 19.39C57.6088 19.1383 57.9502 18.9969 58.3062 18.9969C58.6621 18.9969 59.0035 19.1383 59.2552 19.39ZM54.943 25.717C54.7011 25.717 54.4691 25.8131 54.298 25.9841C54.127 26.1552 54.0308 26.3872 54.0308 26.6291C54.0308 26.8709 54.127 27.1029 54.298 27.274C54.4691 27.4451 54.7011 27.5412 54.943 27.5412C55.1849 27.5412 55.4168 27.4451 55.5879 27.274C55.7589 27.1029 55.8551 26.8709 55.8551 26.6291C55.8551 26.3872 55.7589 26.1552 55.5879 25.9841C55.4168 25.8131 55.1849 25.717 54.943 25.717ZM53.994 25.6801C54.2457 25.4284 54.5871 25.287 54.943 25.287C55.299 25.287 55.6402 25.4284 55.8919 25.6801C56.1436 25.9317 56.2851 26.2731 56.2851 26.6291C56.2851 26.9851 56.1436 27.3264 55.8919 27.5781C55.6402 27.8297 55.299 27.9712 54.943 27.9712C54.5871 27.9712 54.2457 27.8298 53.994 27.5781C53.7423 27.3264 53.6008 26.9851 53.6008 26.6291C53.6008 26.2731 53.7423 25.9317 53.994 25.6801ZM51.7458 55.2116C51.8958 55.1113 52.0721 55.0578 52.2525 55.0578C52.4944 55.0578 52.7264 55.1539 52.8974 55.325C53.0685 55.496 53.1646 55.728 53.1646 55.9699C53.1646 56.1503 53.1111 56.3266 53.0108 56.4766C52.9106 56.6267 52.7682 56.7435 52.6016 56.8126C52.4349 56.8816 52.2514 56.8997 52.0745 56.8645C51.8976 56.8293 51.7351 56.7424 51.6075 56.6149C51.4799 56.4873 51.3931 56.3248 51.3579 56.1479C51.3227 55.9709 51.3408 55.7875 51.4098 55.6209C51.4788 55.4543 51.5958 55.3118 51.7458 55.2116ZM52.2525 54.6278C51.987 54.6278 51.7276 54.7066 51.5069 54.854C51.2862 55.0015 51.1141 55.2111 51.0125 55.4563C50.9109 55.7016 50.8844 55.9714 50.9362 56.2317C50.9879 56.4921 51.1158 56.7312 51.3034 56.9189C51.4911 57.1066 51.7303 57.2344 51.9906 57.2862C52.251 57.338 52.5209 57.3114 52.7661 57.2098C53.0114 57.1082 53.2209 56.9362 53.3684 56.7155C53.5158 56.4948 53.5946 56.2354 53.5946 55.9699C53.5946 55.614 53.4532 55.2726 53.2015 55.0209C52.9498 54.7692 52.6084 54.6278 52.2525 54.6278ZM52.7798 47.0227C52.5379 47.0227 52.3059 47.1188 52.1349 47.2898C51.9638 47.4609 51.8676 47.6929 51.8676 47.9347C51.8676 48.1766 51.9638 48.4086 52.1349 48.5797C52.3059 48.7507 52.5379 48.8468 52.7798 48.8468C53.0217 48.8468 53.2536 48.7507 53.4247 48.5797C53.5958 48.4086 53.6919 48.1766 53.6919 47.9347C53.6919 47.6929 53.5958 47.4609 53.4247 47.2898C53.2536 47.1187 53.0217 47.0227 52.7798 47.0227ZM50.1895 66.614C50.3605 66.443 50.5925 66.3469 50.8344 66.3469C51.0763 66.3469 51.3084 66.443 51.4794 66.614C51.6504 66.7851 51.7465 67.0171 51.7465 67.259C51.7465 67.5009 51.6504 67.7329 51.4794 67.9039C51.3084 68.075 51.0763 68.1711 50.8344 68.1711C50.5925 68.1711 50.3605 68.075 50.1895 67.9039C50.0184 67.7329 49.9224 67.5009 49.9224 67.259C49.9224 67.0171 50.0184 66.7851 50.1895 66.614ZM41.9799 63.4747C41.8 63.475 41.6243 63.5285 41.4748 63.6284C41.3248 63.7286 41.2079 63.8711 41.1389 64.0377C41.0698 64.2044 41.0518 64.3878 41.087 64.5647C41.1222 64.7417 41.209 64.9042 41.3366 65.0317C41.4641 65.1593 41.6266 65.2462 41.8036 65.2814C41.9805 65.3166 42.1639 65.2985 42.3306 65.2295C42.4972 65.1604 42.6397 65.0435 42.7399 64.8935C42.8398 64.744 42.8933 64.5683 42.8936 64.3885C42.8894 64.1475 42.7918 63.9175 42.6213 63.747C42.4508 63.5765 42.2209 63.4789 41.9799 63.4747ZM24.6751 12.2281C24.4332 12.2281 24.2012 12.3242 24.0302 12.4953C23.8591 12.6663 23.763 12.8983 23.763 13.1402C23.763 13.3206 23.8165 13.497 23.9168 13.6469C24.017 13.7969 24.1595 13.9138 24.3261 13.9829C24.4928 14.0519 24.6762 14.07 24.8531 14.0348C25.03 13.9996 25.1925 13.9127 25.3201 13.7852C25.4477 13.6576 25.5345 13.4951 25.5697 13.3182C25.6049 13.1412 25.5868 12.9578 25.5178 12.7912C25.4488 12.6245 25.3318 12.4821 25.1818 12.3818C25.0318 12.2816 24.8555 12.2281 24.6751 12.2281ZM11.056 4.41425C11.056 3.91051 11.4643 3.50215 11.9681 3.50215C12.4718 3.50215 12.8802 3.91051 12.8802 4.41425C12.8802 4.91798 12.4718 5.32634 11.9681 5.32634C11.4643 5.32634 11.056 4.91798 11.056 4.41425ZM0.789404 13.6832C0.963085 13.6047 1.15145 13.5641 1.34208 13.5641C1.53268 13.5641 1.72116 13.6047 1.89486 13.6832C2.06856 13.7617 2.22354 13.8763 2.34949 14.0194C2.47548 14.1625 2.56941 14.3308 2.62524 14.513C2.67841 14.6864 2.69582 14.8688 2.67653 15.0491C2.69582 15.2293 2.67841 15.4117 2.62524 15.5852C2.56941 15.7674 2.47548 15.9356 2.34949 16.0788C2.22353 16.2218 2.06854 16.3364 1.89486 16.4149C1.72116 16.4934 1.53268 16.534 1.34208 16.534C1.15145 16.534 0.963085 16.4934 0.789404 16.4149C0.615721 16.3364 0.460735 16.2218 0.334776 16.0788C0.20884 15.9357 0.114772 15.7674 0.0589136 15.5852C0.0057436 15.4117 -0.0116712 15.2293 0.00762337 15.0491C-0.0116712 14.8688 0.0057436 14.6864 0.0589136 14.513C0.114772 14.3307 0.20884 14.1624 0.334776 14.0194C0.460721 13.8763 0.615702 13.7617 0.789404 13.6832ZM1.34208 13.9941C1.21255 13.9941 1.08455 14.0217 0.966494 14.075C0.848459 14.1284 0.743128 14.2063 0.657526 14.3035C0.571916 14.4008 0.507991 14.5151 0.470039 14.639C0.43208 14.7628 0.420937 14.8933 0.437355 15.0218C0.439667 15.0399 0.439667 15.0582 0.437355 15.0763C0.420937 15.2048 0.43208 15.3353 0.470039 15.4592C0.507991 15.583 0.571916 15.6974 0.657526 15.7946C0.743115 15.8918 0.84844 15.9697 0.966494 16.0231C1.08455 16.0764 1.21255 16.104 1.34208 16.104C1.47162 16.104 1.59973 16.0764 1.71777 16.0231C1.83582 15.9697 1.94115 15.8918 2.02674 15.7946C2.11229 15.6974 2.17614 15.5831 2.21411 15.4592C2.25207 15.3353 2.26321 15.2048 2.2468 15.0763C2.24449 15.0582 2.24449 15.0399 2.2468 15.0218C2.26321 14.8933 2.25207 14.7628 2.21411 14.639C2.17614 14.515 2.11229 14.4007 2.02674 14.3035C1.94113 14.2063 1.8358 14.1284 1.71777 14.075C1.59973 14.0217 1.47162 13.9941 1.34208 13.9941ZM1.34208 18.8542C1.15145 18.8542 0.963085 18.8948 0.789404 18.9733C0.615702 19.0518 0.460721 19.1665 0.334776 19.3095C0.208848 19.4526 0.114776 19.6208 0.0589136 19.8031C0.00574361 19.9766 -0.0116712 20.1589 0.00762337 20.3392C-0.0116712 20.5194 0.00574361 20.7018 0.0589136 20.8753C0.114772 21.0576 0.20884 21.2258 0.334776 21.3689C0.460721 21.5119 0.615702 21.6265 0.789404 21.705C0.963085 21.7835 1.15145 21.8241 1.34208 21.8241C1.53268 21.8241 1.72116 21.7835 1.89486 21.705C2.06856 21.6265 2.22354 21.5119 2.34949 21.3689C2.47548 21.2257 2.56941 21.0575 2.62524 20.8753C2.67841 20.7018 2.69582 20.5194 2.67653 20.3392C2.69582 20.1589 2.67841 19.9766 2.62524 19.8031C2.5694 19.6209 2.47547 19.4526 2.34949 19.3095C2.22354 19.1665 2.06856 19.0518 1.89486 18.9733C1.72116 18.8948 1.53268 18.8542 1.34208 18.8542ZM0.966494 19.3652C1.08455 19.3118 1.21255 19.2842 1.34208 19.2842C1.47162 19.2842 1.59973 19.3118 1.71777 19.3652C1.8358 19.4185 1.94113 19.4964 2.02674 19.5937C2.1123 19.6908 2.17614 19.8052 2.21411 19.9291C2.25207 20.0529 2.26321 20.1834 2.2468 20.3119C2.24449 20.33 2.24449 20.3483 2.2468 20.3664C2.26321 20.4949 2.25207 20.6254 2.21411 20.7493C2.17614 20.8732 2.11229 20.9875 2.02674 21.0847C1.94113 21.182 1.8358 21.2599 1.71777 21.3132C1.59973 21.3665 1.47162 21.3941 1.34208 21.3941C1.21255 21.3941 1.08455 21.3666 0.966494 21.3132C0.848459 21.2599 0.743128 21.182 0.657526 21.0847C0.571916 20.9875 0.507991 20.8731 0.470039 20.7493C0.43208 20.6254 0.420937 20.4949 0.437355 20.3664C0.439667 20.3483 0.439667 20.33 0.437355 20.3119C0.420937 20.1834 0.43208 20.0529 0.470039 19.9291C0.507987 19.8052 0.571907 19.6909 0.657526 19.5937C0.743128 19.4964 0.848459 19.4185 0.966494 19.3652ZM3.76567 25.6801C4.01736 25.4284 4.35875 25.287 4.71469 25.287C4.98013 25.287 5.23955 25.3657 5.46026 25.5132C5.68099 25.6606 5.85296 25.8703 5.95453 26.1155C6.05611 26.3607 6.08268 26.6306 6.0309 26.8909C5.97911 27.1512 5.85129 27.3904 5.6636 27.5781C5.47591 27.7658 5.23679 27.8936 4.97644 27.9454C4.71608 27.9972 4.44624 27.9706 4.20102 27.869C3.95579 27.7674 3.74616 27.5954 3.59868 27.3747C3.45117 27.1539 3.3726 26.8944 3.3726 26.6291C3.3726 26.2731 3.51397 25.9318 3.76567 25.6801ZM4.71469 25.717C4.47278 25.717 4.24077 25.8131 4.06972 25.9841C3.89868 26.1552 3.8026 26.3872 3.8026 26.6291C3.8026 26.8095 3.85603 26.9859 3.95621 27.1358C4.05643 27.2858 4.19889 27.4027 4.36557 27.4717C4.53225 27.5408 4.71563 27.5588 4.89255 27.5237C5.06946 27.4885 5.23197 27.4016 5.35954 27.274C5.4871 27.1465 5.57396 26.9839 5.60916 26.807C5.64435 26.6301 5.62629 26.4467 5.55726 26.28C5.48822 26.1134 5.37133 25.9709 5.22136 25.8707C5.07137 25.7705 4.89509 25.717 4.71469 25.717ZM7.40514 54.6278C7.04919 54.6278 6.70781 54.7692 6.45611 55.0209C6.20442 55.2726 6.06305 55.614 6.06305 55.9699C6.06305 56.2354 6.14177 56.4948 6.28924 56.7155C6.43672 56.9363 6.64635 57.1083 6.89158 57.2098C7.1368 57.3114 7.40664 57.338 7.66699 57.2862C7.92735 57.2344 8.16647 57.1066 8.35416 56.9189C8.54185 56.7312 8.66967 56.4921 8.72145 56.2317C8.77324 55.9714 8.74667 55.7016 8.64509 55.4563C8.54349 55.2111 8.37138 55.0015 8.15071 54.854C7.93001 54.7066 7.67059 54.6278 7.40514 54.6278ZM6.76017 55.325C6.93122 55.1539 7.16323 55.0578 7.40514 55.0578C7.58552 55.0578 7.7618 55.1113 7.91181 55.2116C8.06184 55.3118 8.1788 55.4543 8.24782 55.6209C8.31685 55.7875 8.33491 55.9709 8.29972 56.1479C8.26452 56.3248 8.17766 56.4873 8.0501 56.6149C7.92253 56.7424 7.76002 56.8293 7.58311 56.8645C7.40619 56.8997 7.22281 56.8816 7.05613 56.8126C6.88945 56.7435 6.74699 56.6266 6.64677 56.4766C6.54655 56.3266 6.49305 56.1503 6.49305 55.9699C6.49305 55.728 6.58913 55.496 6.76017 55.325ZM8.10539 66.614C8.27644 66.443 8.50846 66.3469 8.75036 66.3469C8.99226 66.3469 9.22428 66.443 9.39532 66.614C9.56636 66.7851 9.66245 67.0171 9.66245 67.259C9.66245 67.5009 9.56637 67.7329 9.39532 67.9039C9.22428 68.075 8.99226 68.1711 8.75036 68.1711C8.50846 68.1711 8.27644 68.075 8.10539 67.9039C7.93435 67.7329 7.83827 67.5009 7.83827 67.259C7.83827 67.0171 7.93436 66.7851 8.10539 66.614ZM16.764 64.3885C16.7643 64.5683 16.8178 64.744 16.9177 64.8935C17.0179 65.0435 17.1604 65.1604 17.3271 65.2295C17.4937 65.2985 17.6771 65.3166 17.854 65.2814C18.031 65.2462 18.1935 65.1593 18.321 65.0317C18.4486 64.9042 18.5354 64.7417 18.5706 64.5647C18.6058 64.3878 18.5878 64.2044 18.5187 64.0377C18.4497 63.8711 18.3328 63.7286 18.1828 63.6284C18.0333 63.5285 17.8577 63.475 17.6779 63.4747C17.4368 63.4789 17.2068 63.5766 17.0363 63.747C16.8658 63.9175 16.7682 64.1475 16.764 64.3885Z" fill="white"/>
</svg>
