<svg width="60" height="59" viewBox="0 0 60 59" fill="none" xmlns="http://www.w3.org/2000/svg">
<path d="M22.0586 58.125C18.5221 55.0721 14.2655 52.2762 11.4811 48.918C10.841 48.1307 11.9612 46.8934 11.4811 45.8169C11.001 44.7403 10.2649 43.0371 11.129 41.9766C12.2011 40.6591 11.129 39.8235 9.97687 39.2772C8.82471 38.7309 8.56864 33.8944 7.04843 35.8869C5.99228 37.108 2.43978 41.35 0.455495 40.1931C-1.14473 38.6827 1.89569 36.0315 3.04786 35.0353C4.20002 34.039 5.52825 32.9946 5.1922 31.8217C5.04818 31.3718 4.66413 30.8576 5.1922 30.3273C5.72028 29.7971 6.12029 29.9578 6.24831 29.54C6.56836 28.4474 7.68857 28.5598 8.20064 27.6118C8.70569 26.8442 9.37202 26.1971 10.1529 25.7158C10.985 25.0892 12.5692 25.9407 12.8412 24.6232C12.9334 24.1272 13.1623 23.6671 13.5017 23.295C13.8411 22.923 14.2775 22.6539 14.7615 22.5183C15.1215 22.3819 15.5074 22.3288 15.8906 22.3627C16.2738 22.3967 16.6446 22.517 16.9751 22.7146C17.3057 22.9122 17.5876 23.1821 17.8001 23.5042C18.0125 23.8263 18.1499 24.1922 18.2021 24.575C18.2382 25.231 18.043 25.8787 17.6509 26.4047C17.2588 26.9306 16.6947 27.3011 16.0577 27.4512C15.2416 27.6118 14.0735 28.3831 14.9856 29.315C15.9728 31.0369 16.7927 32.8503 17.4339 34.73C17.4339 35.7744 17.4339 36.5296 18.426 36.9473C19.4182 37.3651 19.1781 38.4256 20.2343 38.8112C21.5004 39.5058 22.5943 40.4779 23.4347 41.6553C23.8668 38.2007 25.8351 35.2281 26.6352 31.8217C27.1153 30.2149 25.8672 28.7848 26.1072 27.1459C26.2192 26.3425 24.7629 25.5391 23.9468 25.4587C22.6995 25.612 21.4412 25.655 20.1863 25.5873C18.9542 25.3141 19.4502 23.3217 19.3382 22.213C18.5701 21.4578 18.8261 20.4937 18.6661 19.5296C18.25 18.6941 17.6739 18.8869 16.8258 18.5173C15.9777 18.1478 16.5858 15.5769 16.8258 14.7092C17.0658 13.8415 16.3458 13.1024 16.2018 12.1062C16.0302 10.2497 16.2482 8.37762 16.8418 6.61094C17.8078 4.46731 19.4189 2.6818 21.4484 1.50578C23.4779 0.329756 25.8237 -0.177572 28.1554 0.0551808C37.2127 1.77446 38.4769 9.59958 35.9966 17.1194C36.5727 17.6979 36.6847 19.8349 37.6928 18.9512C38.621 18.5816 39.293 20.0599 39.7891 20.558C40.2212 21.5542 41.2293 21.5703 42.1254 22.0523C44.9667 23.5919 47.5837 25.5167 49.9026 27.7725C51.5954 29.2917 52.9152 31.1835 53.7591 33.2999C54.7192 35.7744 55.9994 38.8594 56.7995 41.7517C58.3903 47.0601 59.4622 52.5115 60 58.0286C47.3742 58.0286 34.7324 58.0286 22.1066 58.0286L22.0586 58.125Z" fill="white"/>
</svg>
