<svg width="60" height="51" viewBox="0 0 60 51" fill="none" xmlns="http://www.w3.org/2000/svg">
<path d="M53.2186 5.38951C53.2135 5.3643 53.2033 5.3404 53.1887 5.31926C53.174 5.29812 53.1552 5.28016 53.1334 5.26653C53.1116 5.2529 53.0872 5.24385 53.0618 5.23994C53.0364 5.23603 53.0104 5.23736 52.9855 5.24381C52.9505 5.25298 52.9185 5.27129 52.8929 5.2969C52.8673 5.3225 52.849 5.35448 52.8398 5.38951C52.3849 7.35895 51.3253 9.13676 49.8095 10.474C48.5233 11.4687 47.0294 12.1609 45.4389 12.499C45.4139 12.5026 45.3899 12.5111 45.3682 12.524C45.3466 12.537 45.3277 12.5542 45.3128 12.5745C45.2979 12.5949 45.2871 12.618 45.2813 12.6426C45.2754 12.6672 45.2745 12.6927 45.2787 12.7176C45.2844 12.7542 45.3016 12.788 45.3278 12.8141C45.354 12.8403 45.3878 12.8575 45.4243 12.8633C47.1822 13.2689 48.8009 14.1336 50.1155 15.3691C51.063 16.9282 51.7518 18.6305 52.1551 20.4098C52.1702 20.4477 52.1964 20.4802 52.2301 20.503C52.2639 20.5259 52.3037 20.5381 52.3445 20.5381C52.3853 20.5381 52.4251 20.5259 52.4589 20.503C52.4926 20.4802 52.5188 20.4477 52.5339 20.4098C52.8981 19.0841 53.8159 16.3452 55.5642 15.1651C56.8798 14.3189 58.3349 13.7122 59.8619 13.3731C59.9102 13.3595 59.9511 13.3274 59.9757 13.2837C60.0003 13.24 60.0065 13.1883 59.9931 13.14C59.9866 13.1061 59.9709 13.0746 59.9478 13.0489C59.9247 13.0232 59.895 13.0044 59.8619 12.9944C58.2499 12.6103 56.7706 11.8002 55.5787 10.6488C54.4451 9.07297 53.6423 7.28395 53.2186 5.38951ZM43.6761 27.3445C43.6555 27.268 43.6061 27.2025 43.5381 27.1618C43.4702 27.121 43.3891 27.1082 43.3119 27.126C43.2613 27.1406 43.2156 27.1687 43.1797 27.2071C43.1438 27.2456 43.119 27.2931 43.1079 27.3445C42.4234 30.3075 40.8289 32.982 38.5479 34.9931C36.615 36.5049 34.3547 37.5428 31.9483 38.0234C31.911 38.032 31.8757 38.0479 31.8445 38.0701C31.8133 38.0923 31.7868 38.1205 31.7665 38.1529C31.7462 38.1854 31.7326 38.2215 31.7263 38.2593C31.7199 38.2971 31.7211 38.3357 31.7298 38.373C31.7422 38.4239 31.7675 38.4707 31.8033 38.5089C31.839 38.5472 31.8839 38.5756 31.9337 38.5916C33.886 39.1452 37.2804 40.3253 38.9995 42.3503C40.3544 43.9529 41.5491 47.9884 42.0881 49.9552C42.1087 50.0286 42.1559 50.0918 42.2206 50.1322C42.2853 50.1726 42.3627 50.1874 42.4378 50.1737C42.488 50.1555 42.5336 50.1266 42.5714 50.0888C42.6091 50.051 42.6381 50.0054 42.6563 49.9552C43.1953 47.9593 44.5939 43.8218 47.2163 42.0735C49.1925 40.7963 51.3766 39.8743 53.6702 39.3492C53.7429 39.3287 53.8048 39.2807 53.8428 39.2155C53.8809 39.1503 53.8922 39.0728 53.8742 38.9995C53.8618 38.9487 53.8364 38.9019 53.8007 38.8636C53.765 38.8254 53.7201 38.7969 53.6702 38.781C51.8929 38.2419 48.5858 37.0619 47.2163 35.2699C45.4981 32.9012 44.2879 30.203 43.6615 27.3445H43.6761ZM19.5212 0.363284C19.495 0.259461 19.4349 0.167361 19.3505 0.101547C19.266 0.0357336 19.162 0 19.055 0C18.9479 0 18.8439 0.0357336 18.7594 0.101547C18.675 0.167361 18.615 0.259461 18.5888 0.363284C17.7584 3.51013 15.675 9.32305 11.1442 12.8924C7.98024 15.3551 4.29106 17.0551 0.363329 17.8603C0.259505 17.8865 0.167405 17.9466 0.101592 18.031C0.035778 18.1155 0 18.2195 0 18.3265C0 18.4336 0.035778 18.5376 0.101592 18.622C0.167405 18.7065 0.259505 18.7665 0.363329 18.7927C3.53931 19.6814 9.10456 21.7065 11.8872 24.9699C14.1162 27.5922 16.083 34.1627 16.9425 37.3824C16.9796 37.5039 17.0632 37.6058 17.1751 37.6658C17.287 37.7259 17.4181 37.7392 17.5399 37.7029C17.6168 37.6825 17.6869 37.642 17.7432 37.5857C17.7995 37.5295 17.8399 37.4593 17.8604 37.3824C18.7491 34.119 21.0509 27.3591 25.3487 24.4745C28.5823 22.4229 32.1456 20.9444 35.8819 20.1039C36.0039 20.0667 36.1068 19.9837 36.1692 19.8725C36.2317 19.7612 36.2487 19.6301 36.2169 19.5066C36.1995 19.4282 36.1601 19.3565 36.1033 19.2997C36.0466 19.243 35.9748 19.2035 35.8964 19.1861C32.9827 18.312 27.5631 16.3597 25.3487 13.3586C22.545 9.46508 20.5577 5.04467 19.5066 0.363284H19.5212Z" fill="white"/>
</svg>
