<svg width="63" height="34" viewBox="0 0 63 34" fill="none" xmlns="http://www.w3.org/2000/svg">
<path d="M60.29 22.8402C60.29 23.1054 60.1847 23.3598 59.9971 23.5473C59.8096 23.7348 59.5552 23.8402 59.29 23.8402H57.35V14.1402H59.29C59.5552 14.1402 59.8096 14.2455 59.9971 14.4331C60.1847 14.6206 60.29 14.875 60.29 15.1402V22.8402ZM15.71 4.8902L17.23 3.8902C19.3149 2.62297 21.7102 1.95836 24.15 1.97018H38.09C40.5299 1.95731 42.9255 2.622 45.01 3.8902L46.74 4.8902H15.71ZM4.87001 23.8102H2.92C2.65478 23.8102 2.40044 23.7048 2.21291 23.5173C2.02537 23.3298 1.92 23.0754 1.92 22.8102V15.0502C1.92 14.785 2.02537 14.5306 2.21291 14.3431C2.40044 14.1555 2.65478 14.0502 2.92 14.0502H4.87001V23.8102ZM59.32 12.1602H57.24C57.104 11.3853 56.8652 10.632 56.53 9.9202C56.2013 9.19795 55.7739 8.52485 55.26 7.9202C54.222 6.72499 52.8871 5.82469 51.39 5.31018L45.99 2.18018C43.6036 0.740729 40.8669 -0.0135205 38.08 0.000183467H24.15C21.3587 -0.0133826 18.6178 0.7445 16.23 2.19019L16.16 2.24017L11.93 5.02017C10.6275 5.27896 9.40074 5.83019 8.34232 6.63223C7.28389 7.43428 6.42144 8.4662 5.82001 9.65018C5.4236 10.4345 5.14718 11.2738 5 12.1402H2.92C2.53874 12.1456 2.16203 12.2237 1.81001 12.3702C1.45503 12.5157 1.1322 12.7298 0.860001 13.0002C0.592273 13.2707 0.37848 13.5897 0.230011 13.9402C0.0838864 14.2958 0.00585587 14.6757 0 15.0602V22.8202C0.00585587 23.2046 0.0838864 23.5845 0.230011 23.9402C0.37848 24.2906 0.592273 24.6097 0.860001 24.8802C1.1322 25.1506 1.45503 25.3646 1.81001 25.5102C2.16135 25.6578 2.53893 25.7326 2.92 25.7302H5C5.08055 26.2342 5.20777 26.7297 5.38 27.2102C5.72044 28.1769 6.23191 29.0745 6.89 29.8602C7.21664 30.2551 7.5781 30.6199 7.97 30.9502C8.35868 31.2814 8.77712 31.576 9.22 31.8302C9.66429 32.0882 10.1292 32.309 10.61 32.4902C11.0918 32.6631 11.5867 32.7969 12.09 32.8902C12.5952 32.9781 13.1072 33.0216 13.62 33.0202H25.62C26.0233 33.0257 26.4181 32.904 26.7484 32.6725C27.0787 32.4409 27.3277 32.1112 27.46 31.7302L28.37 29.1402H33.85L34.77 31.7302C34.8973 32.1129 35.1467 32.4431 35.48 32.6702C35.808 32.9003 36.1994 33.0226 36.6 33.0202H48.6C49.1095 33.022 49.6182 32.9785 50.12 32.8902C50.6236 32.7981 51.1186 32.6643 51.6 32.4902C52.0816 32.311 52.5467 32.0902 52.99 31.8302C53.4329 31.576 53.8513 31.2814 54.24 30.9502C54.6319 30.6199 54.9933 30.2551 55.32 29.8602C55.648 29.4714 55.9393 29.0529 56.19 28.6102C56.4479 28.1652 56.6622 27.6963 56.83 27.2102C57.0009 26.7285 57.1313 26.2335 57.22 25.7302H59.29C59.6743 25.7326 60.0552 25.6578 60.41 25.5102C60.7605 25.3617 61.0795 25.1479 61.35 24.8802C61.6241 24.6129 61.8417 24.2932 61.99 23.9402C62.1329 23.584 62.2076 23.204 62.21 22.8202V15.0602C62.2076 14.6764 62.1329 14.2964 61.99 13.9402C61.8417 13.5872 61.6241 13.2675 61.35 13.0002C61.0795 12.7325 60.7605 12.5186 60.41 12.3702C60.0625 12.2345 59.6931 12.1634 59.32 12.1602Z" fill="white"/>
</svg>
