<svg width="60" height="65" viewBox="0 0 60 65" fill="none" xmlns="http://www.w3.org/2000/svg">
<path fill-rule="evenodd" clip-rule="evenodd" d="M31.1539 17.9243L32.9573 0H29.091L30.3479 17.9243H31.1539ZM4.9915 3.19681L13.2705 16.0389L12.3142 16.8039L1.99957 5.92917L4.9915 3.19681ZM13.7302 21.0955C13.5099 21.214 13.3197 21.3817 13.1748 21.5857C11.8607 23.2656 15.4769 26.2351 16.2836 26.8975L16.3034 26.9138C16.3897 26.9916 16.5014 27.0353 16.6176 27.0367C16.7383 27.0374 16.855 26.9936 16.9455 26.9138C17.7105 26.34 21.4266 23.3344 20.0604 21.5857C19.9184 21.382 19.7308 21.2142 19.5126 21.0957C19.2945 20.9771 19.0516 20.911 18.8035 20.9026C17.9727 20.9812 17.1974 21.3543 16.6176 21.9545C16.0488 21.347 15.2747 20.9722 14.4453 20.9026C14.1953 20.911 13.9506 20.977 13.7302 21.0955ZM10.0084 24.6149C9.65805 24.4854 9.28558 24.4264 8.91234 24.441V24.3863C8.51654 24.3914 8.12616 24.4791 7.76621 24.6437C7.40626 24.8084 7.08472 25.0465 6.82213 25.3427C6.56348 25.617 6.3644 25.9419 6.23743 26.297C6.11047 26.652 6.05832 27.0295 6.08434 27.4056L6.15271 29.0587C3.03783 30.4249 2.10882 33.1572 1.27545 37.2558C0.502147 35.5588 0.071463 33.7258 0.00816378 31.862C-0.0551355 29.9981 0.250169 28.1402 0.906553 26.3946C3.54328 21.5857 7.32758 20.0419 16.522 20.0419C25.7163 20.0419 29.5143 21.5857 32.1374 26.3536C32.6909 27.6899 32.9965 29.1158 33.0391 30.5615C32.7343 30.5407 32.4285 30.5407 32.1237 30.5615C31.2235 30.5645 30.3309 30.7264 29.487 31.0397C28.8027 30.1866 27.9148 29.5194 26.905 29.0997L26.9733 27.4602C26.9993 27.0841 26.9471 26.7066 26.8202 26.3516C26.6932 25.9966 26.4941 25.6717 26.2355 25.3973C25.853 24.9881 25.3592 24.6998 24.8148 24.5679C24.2705 24.436 23.6995 24.4664 23.1722 24.6553C22.6448 24.8441 22.1843 25.1832 21.8474 25.6306C21.5105 26.0781 21.3119 26.6144 21.2762 27.1733V27.9931C19.9784 27.8564 18.421 27.8564 16.563 27.8564C14.705 27.8564 13.2295 27.8974 11.8633 27.9931V27.1733C11.8493 26.8001 11.7617 26.4333 11.6058 26.0939C11.4498 25.7545 11.2284 25.4492 10.9544 25.1954C10.6803 24.9416 10.3588 24.7443 10.0084 24.6149ZM16.6244 31.517C18.2691 31.517 19.851 32.1481 21.044 33.28L20.5796 43.1302C19.4064 44.0345 17.9621 44.5159 16.481 44.4964C15.1149 44.4542 13.7981 43.9754 12.724 43.1302L12.2049 33.28C13.3979 32.1481 14.9798 31.517 16.6244 31.517ZM42.0422 37.9798C42.0333 39.1054 42.3192 40.2137 42.8715 41.1946C43.4237 42.1754 44.2232 42.9945 45.1902 43.5706C46.1573 44.1467 47.2582 44.4596 48.3837 44.4783C49.5092 44.4969 50.6199 44.2206 51.6055 43.6768L53.1083 33.3621C52.1975 32.4735 51.045 31.873 49.7949 31.6355C48.5448 31.398 47.2524 31.534 46.0792 32.0266C44.906 32.5192 43.9039 33.3466 43.1981 34.4054C42.4923 35.4641 42.1139 36.7074 42.1105 37.9798H42.0422ZM26.8423 41.5811C26.1324 40.5144 25.7549 39.261 25.7576 37.9797C25.7612 36.2646 26.4451 34.621 27.6591 33.4095C28.8732 32.1981 30.5182 31.5177 32.2333 31.5177C33.5146 31.5177 34.7672 31.8978 35.8324 32.61C36.8976 33.3221 37.7276 34.3343 38.2173 35.5184C38.707 36.7025 38.8345 38.0052 38.5835 39.2617C38.3326 40.5183 37.7145 41.6721 36.8074 42.5772C35.9004 43.4823 34.7453 44.0979 33.4882 44.3463C32.2312 44.5946 30.9287 44.4644 29.7457 43.9722C28.5626 43.48 27.5522 42.6478 26.8423 41.5811ZM16.6179 25.7661C18.2437 24.3999 19.6508 22.7195 19.2273 22.173C19.1784 22.0938 19.1101 22.0284 19.0289 21.9829C18.9476 21.9375 18.856 21.9136 18.7629 21.9135C18.2027 21.9135 17.3967 22.6376 17.0278 22.9928C16.9798 23.0517 16.9195 23.0994 16.851 23.1324C16.7825 23.1655 16.7076 23.1831 16.6316 23.184C16.5452 23.1848 16.4599 23.1639 16.3836 23.1234C16.3072 23.0828 16.2422 23.0238 16.1944 22.9518C15.7602 22.4039 15.1536 22.0187 14.473 21.8589C14.3821 21.8671 14.2942 21.8961 14.216 21.9434C14.1379 21.9908 14.0716 22.0553 14.0222 22.1321C13.5987 22.7195 15.0059 24.4409 16.6179 25.7661ZM25.3748 41.0946L25.0743 47.4337C24.4442 47.863 23.9083 48.4164 23.4995 49.06C23.0908 49.7037 22.8178 50.4241 22.6972 51.177L20.4977 64.5655H8.9807L7.23203 27.3235C7.22009 27.0861 7.25626 26.8487 7.33843 26.6257C7.42061 26.4027 7.54705 26.1985 7.71016 26.0256C7.86711 25.85 8.05842 25.7085 8.27226 25.6098C8.4861 25.5111 8.71798 25.4573 8.95343 25.4518C9.42365 25.4332 9.88231 25.6005 10.2301 25.9176C10.5778 26.2347 10.7866 26.676 10.8114 27.1459L11.7951 45.6986C11.8011 45.8271 11.8547 45.9488 11.9454 46.0401C13.3136 47.0082 14.9484 47.528 16.6245 47.528C18.3006 47.528 19.9354 47.0082 21.3037 46.0401C21.3943 45.9488 21.4479 45.8271 21.4539 45.6986L22.4376 27.1459C22.4658 26.6772 22.6757 26.238 23.0226 25.9216C23.3696 25.6053 23.8263 25.4367 24.2956 25.4518C24.531 25.4573 24.7628 25.5111 24.9767 25.6098C25.1905 25.7085 25.3819 25.85 25.5389 26.0256C25.702 26.1985 25.8284 26.4027 25.9106 26.6257C25.9928 26.8487 26.0289 27.0861 26.017 27.3235L25.6891 34.2637C25.0959 35.2947 24.7578 36.4527 24.7032 37.641C24.6485 38.8293 24.8788 40.0134 25.3748 41.0946ZM12.7926 44.4555V45.3981C13.9293 46.0951 15.2367 46.464 16.5701 46.464C17.9035 46.464 19.2108 46.0951 20.3475 45.3981V44.4418C19.1852 45.13 17.8593 45.4933 16.5085 45.4938H16.3446C15.092 45.4527 13.8701 45.0955 12.7926 44.4555ZM28.244 47.543H36.1951C37.2779 47.5357 38.3275 47.9159 39.1543 48.6149C39.9811 49.314 40.5307 50.2858 40.7035 51.3547L42.8758 64.5793H21.577L23.7493 51.3547C23.9191 50.2869 24.4658 49.3154 25.2904 48.6161C26.115 47.9168 27.1628 47.5361 28.244 47.543ZM57.1798 25.6841C56.6563 25.6142 56.1265 25.7547 55.7065 26.0748C55.2864 26.395 55.0105 26.8686 54.9392 27.3918L52.0976 47.0238C52.0779 47.1505 52.0131 47.2658 51.9153 47.3487C51.8174 47.4315 51.693 47.4762 51.5648 47.4747H44.7339C44.0567 47.4786 43.3993 47.7041 42.8623 48.1168L41.1955 49.483C41.4751 50.0126 41.6645 50.5851 41.7557 51.177L43.9552 64.5656H56.5513V47.543C56.5514 47.1318 56.5788 46.721 56.6333 46.3134L58.9968 27.952C59.0301 27.6859 59.0098 27.4158 58.937 27.1577C58.8643 26.8996 58.7407 26.6587 58.5733 26.4492C58.4071 26.2317 58.1972 26.0514 57.9573 25.9196C57.7173 25.7879 57.4525 25.7077 57.1798 25.6841ZM0.524193 16.599L4.34948 18.5527C4.4251 18.594 4.50924 18.6174 4.59538 18.6209C4.69364 18.6214 4.78989 18.5933 4.87238 18.5399C4.95488 18.4865 5.02 18.4102 5.05983 18.3204C5.093 18.2596 5.11367 18.1928 5.12062 18.1238C5.12756 18.0549 5.12064 17.9853 5.10027 17.9191C5.0799 17.8529 5.04653 17.7914 5.00205 17.7384C4.95756 17.6853 4.90289 17.6416 4.84128 17.61L1.00232 15.6564C0.93972 15.6138 0.868754 15.5851 0.794193 15.5722C0.719633 15.5592 0.643171 15.5623 0.569888 15.5811C0.496605 15.6 0.428176 15.6344 0.369181 15.6818C0.310185 15.7292 0.261995 15.7886 0.22776 15.8561C0.193524 15.9236 0.174039 15.9976 0.170641 16.0732C0.167243 16.1488 0.180038 16.2243 0.208081 16.2945C0.236124 16.3648 0.27882 16.4283 0.333325 16.4808C0.387831 16.5333 0.452901 16.5736 0.524193 16.599ZM20.2856 12.764C20.1984 12.7058 20.1297 12.6238 20.0878 12.5278L16.4538 3.96186C16.4272 3.89825 16.4135 3.82996 16.4135 3.76099C16.4135 3.69201 16.4273 3.62371 16.454 3.56011C16.4807 3.49652 16.5198 3.4389 16.569 3.39059C16.6182 3.34228 16.6767 3.30427 16.7408 3.27877C16.8695 3.22359 17.0148 3.2213 17.1452 3.27243C17.2756 3.32357 17.3805 3.424 17.4375 3.55198L21.0715 12.1589C21.0984 12.2235 21.1123 12.2928 21.1125 12.3627C21.1126 12.4327 21.099 12.502 21.0724 12.5667C21.0457 12.6314 21.0066 12.6903 20.9572 12.7398C20.9078 12.7894 20.8492 12.8287 20.7846 12.8557H20.5797C20.4749 12.8539 20.3728 12.8221 20.2856 12.764ZM40.8947 12.8556C40.7976 12.8559 40.7025 12.8274 40.6215 12.7737C40.5565 12.74 40.4993 12.6929 40.4538 12.6355C40.4083 12.5782 40.3754 12.5118 40.3573 12.4409C40.3393 12.3699 40.3364 12.2959 40.349 12.2238C40.3615 12.1516 40.3892 12.083 40.4302 12.0223L45.1981 4.03014C45.2762 3.92477 45.3904 3.85191 45.5188 3.82547C45.6473 3.79903 45.781 3.82087 45.8943 3.88684C46.0077 3.95281 46.0927 4.05828 46.1331 4.18303C46.1736 4.30777 46.1666 4.44305 46.1135 4.56297L41.3455 12.5961C41.2988 12.6743 41.2329 12.7392 41.154 12.7846C41.0751 12.8301 40.9858 12.8545 40.8947 12.8556ZM46.4004 20.1238L58.9556 6.58494L55.9226 4.39905L45.7036 19.5636L46.4004 20.1238ZM59.5729 17.9341C59.7102 17.9621 59.8315 18.0417 59.9118 18.1565C59.9896 18.2743 60.0174 18.4182 59.9892 18.5565C59.9611 18.6948 59.8792 18.8163 59.7615 18.8943L54.5017 22.337C54.4199 22.401 54.3186 22.4348 54.2148 22.4327C54.0977 22.4397 53.9817 22.4068 53.8856 22.3395C53.7896 22.2721 53.7191 22.1742 53.6858 22.0617C53.6526 21.9492 53.6584 21.8287 53.7024 21.7199C53.7463 21.6111 53.8258 21.5205 53.9279 21.4627L59.1741 18.0063C59.2929 17.932 59.4356 17.9061 59.5729 17.9341Z" fill="white"/>
</svg>
