<svg width="337" height="217" viewBox="0 0 337 217" fill="none" xmlns="http://www.w3.org/2000/svg">
<path d="M91.5626 246.519C116.332 269.397 145.865 289.369 179.419 299.683C212.973 309.997 250.931 309.787 279.766 294.684C309.613 279.066 326.432 249.601 333.479 219.304C338.651 196.962 339.012 172.566 327.693 150.93C316.374 129.294 291.415 111.145 264.885 111.047C242.439 110.939 223.853 122.847 204.883 132.021C185.913 141.194 161.687 147.874 141.663 137.757C126.94 130.355 118.646 115.403 115.797 101.046C112.948 86.6883 114.498 72.2786 113.988 57.8541C111.899 -3.71583 48.6875 -18.6873 9.47745 26.6181C-18.7709 59.306 6.00023 117.933 22.7389 153.389C38.8352 187.595 62.214 219.23 91.5626 246.519Z" fill="url(#paint0_linear_15_146)"/>
<defs>
<linearGradient id="paint0_linear_15_146" x1="37.8944" y1="186.261" x2="290.464" y2="69.8155" gradientUnits="userSpaceOnUse">
<stop stop-color="#FF4320"/>
<stop offset="0.5" stop-color="#6D46FF"/>
<stop offset="1" stop-color="#00EE6C"/>
</linearGradient>
</defs>
</svg>
