<svg width="315" height="159" viewBox="0 0 315 159" fill="none" xmlns="http://www.w3.org/2000/svg">
<path opacity="0.6" d="M62.7537 69.9449C31.5934 69.4843 11.3341 79.9025 5.4905 95.3094C-0.454194 110.983 9.14972 129.904 32.9558 144.381L32.9581 144.382C50.7299 155.175 74.5145 156.466 97.4934 154.144C120.647 151.804 143.921 145.687 161.275 140.765C195.072 131.215 226.138 116.662 252.729 97.9137L252.737 97.9077C274.99 82.1048 294.504 62.8052 304.192 40.1787C313.881 17.5467 312.951 -9.00588 296.33 -30.0492C279.246 -51.6992 248.441 -64.296 217.943 -70.1904L217.94 -70.191C195.356 -74.5389 170.482 -75.7805 148.537 -68.7841C137.508 -65.2681 127.436 -59.3437 120.154 -51.9294C112.888 -44.5328 108.217 -35.4526 108.51 -25.6248C108.744 -17.3388 112.252 -9.77853 116.724 -2.8075C119.614 1.69716 123.104 6.22595 126.445 10.5629C128.152 12.7775 129.82 14.9421 131.35 17.028C140.721 29.806 146.657 44.4532 138.364 55.7344L138.36 55.74C132.133 64.2548 118.695 69.0409 104.981 70.3647C95.6334 71.2669 86.4167 70.8546 76.8702 70.4276C72.2589 70.2213 67.5707 70.0116 62.7537 69.9449ZM62.7537 69.9449C62.7541 69.9449 62.7545 69.9449 62.7549 69.9449L63.1587 73.2533L62.751 69.9448C62.7519 69.9448 62.7528 69.9449 62.7537 69.9449Z" stroke="url(#paint0_linear_15_143)" stroke-width="7"/>
<defs>
<linearGradient id="paint0_linear_15_143" x1="102.587" y1="166.083" x2="63.862" y2="-68.3833" gradientUnits="userSpaceOnUse">
<stop stop-color="#6D46FF"/>
<stop offset="1" stop-color="#00EE6C"/>
</linearGradient>
</defs>
</svg>
