<svg width="23" height="17" viewBox="0 0 23 17" fill="none" xmlns="http://www.w3.org/2000/svg">
<path d="M20.0496 2.31524C18.5359 1.03524 16.7194 0.395241 14.8019 0.288574L14.4992 0.608574C16.2148 1.03524 17.7285 1.88857 19.1414 3.06191C17.4258 2.10191 15.5084 1.46191 13.49 1.24857C12.8845 1.14191 12.3799 1.14191 11.7744 1.14191C11.1689 1.14191 10.6643 1.14191 10.0588 1.24857C8.04047 1.46191 6.12304 2.10191 4.40744 3.06191C5.82029 1.88857 7.33405 1.03524 9.04964 0.608574L8.74689 0.288574C6.82946 0.395241 5.01295 1.03524 3.49918 2.31524C1.78359 5.72857 0.875331 9.56857 0.774414 13.5152C2.28818 15.2219 4.40744 16.2886 6.62763 16.2886C6.62763 16.2886 7.33405 15.4352 7.83863 14.6886C6.52671 14.3686 5.3157 13.6219 4.50836 12.4486C5.21478 12.8752 5.9212 13.3019 6.62763 13.6219C7.53588 14.0486 8.44414 14.2619 9.3524 14.4752C10.1597 14.5819 10.9671 14.6886 11.7744 14.6886C12.5818 14.6886 13.3891 14.5819 14.1964 14.4752C15.1047 14.2619 16.0129 14.0486 16.9212 13.6219C17.6276 13.3019 18.334 12.8752 19.0405 12.4486C18.2331 13.6219 17.0221 14.3686 15.7102 14.6886C16.2148 15.4352 16.9212 16.2886 16.9212 16.2886C19.1414 16.2886 21.2607 15.2219 22.7744 13.5152C22.6735 9.56857 21.7652 5.72857 20.0496 2.31524ZM8.44414 11.5952C7.43496 11.5952 6.52671 10.6352 6.52671 9.46191C6.52671 8.28858 7.43496 7.32857 8.44414 7.32857C9.45331 7.32857 10.3616 8.28858 10.3616 9.46191C10.3616 10.6352 9.45331 11.5952 8.44414 11.5952ZM15.1047 11.5952C14.0955 11.5952 13.1873 10.6352 13.1873 9.46191C13.1873 8.28858 14.0955 7.32857 15.1047 7.32857C16.1139 7.32857 17.0221 8.28858 17.0221 9.46191C17.0221 10.6352 16.1139 11.5952 15.1047 11.5952Z" fill="white"/>
</svg>
