<svg width="98" height="106" viewBox="0 0 98 106" fill="none" xmlns="http://www.w3.org/2000/svg">
<path d="M49.5755 24.8936C50.5106 23.8275 51.6343 23.3128 53.038 23.901C54.3989 24.4815 54.9141 25.5921 55.0093 26.9969C55.1376 28.9183 55.3573 30.8319 55.4545 32.7533C55.8433 40.3421 57.9975 47.5942 59.7063 54.9295C60.2682 57.3366 61.0361 59.6952 61.6602 62.0887C61.7224 62.411 61.8728 62.7099 62.0947 62.9527C62.3166 63.1954 62.6015 63.3725 62.9181 63.4645C67.3254 65.0724 71.7056 66.7539 76.1168 68.3521C76.9878 68.6675 77.3494 69.0583 77.3338 70.0297C77.2716 73.6828 77.2852 77.3398 77.3241 80.9949C77.3241 81.8501 77.0928 82.1559 76.1887 82.1559C69.5165 82.123 62.8422 82.1404 56.1641 82.1327C54.8596 82.1327 54.7488 81.9643 55.1746 80.7685C55.6334 79.4837 56.0961 78.2009 56.6016 76.7942C53.4015 75.848 50.0051 75.2114 49.6999 71.2216C48.8017 72.4541 48.1057 73.9827 46.9217 74.8728C45.7377 75.7629 44.0405 76.057 42.4249 76.6645L44.4546 82.0165C43.7489 82.0727 43.3309 82.1346 42.9129 82.1365C35.9626 82.1365 29.0123 82.123 22.062 82.1636C21.0122 82.1636 20.6273 81.9275 20.6525 80.8092C20.7264 77.2353 20.7012 73.6499 20.6662 70.0819C20.6662 69.2905 20.9053 68.8939 21.6791 68.6269C26.2653 67.048 30.8165 65.3897 35.4124 63.8244C36.4817 63.4587 37.1019 62.9324 37.3702 61.783C39.256 53.7182 41.3576 45.698 43.0548 37.5964C43.7722 34.1639 43.6653 30.563 43.9686 27.0395C44.0249 26.3874 44.1163 25.685 44.4079 25.1045C45.4928 23.0264 47.7363 22.9374 49.5755 24.8936ZM44.2757 39.1889C44.0152 40.1563 43.745 41.1335 43.4981 42.1125C41.633 49.4511 39.7783 56.7922 37.934 64.1359C37.8468 64.5857 37.8907 65.051 38.0603 65.4768C38.9508 67.8258 39.882 70.1613 40.8152 72.4948C41.9972 75.4455 41.9817 75.3836 45.0437 74.3949C46.6184 73.886 47.5438 72.903 47.8199 71.359C48.1076 69.7414 48.4031 68.0986 48.4206 66.4655C48.4809 57.3133 48.4556 48.1611 48.4595 39.0089V37.6545C46.9509 37.4262 46.2315 37.7396 45.8719 38.9818C45.5239 40.3093 45.2462 41.654 45.0398 43.0104C44.5946 45.5258 44.2077 48.0412 43.7294 50.5566C43.6711 50.8642 43.2142 51.0964 42.9401 51.3634C42.7768 51.019 42.5513 50.6881 42.4735 50.3263C42.4171 50.038 42.5707 49.7129 42.6193 49.4034C43.1663 45.994 43.7093 42.5834 44.2485 39.1715C44.8979 37.757 45.5686 36.3697 47.4 36.1936C47.7383 36.1607 48.0707 36.0853 48.4654 36.0195C48.4654 34.0342 48.4304 32.1128 48.4809 30.1953C48.5023 29.3149 48.0921 28.9434 47.3008 28.9705C46.3929 29.0015 45.1837 28.8157 45.0398 30.0773C44.7015 33.0881 44.5207 36.1452 44.2816 39.1889H44.2757ZM50.4017 36.1646C53.0846 36.3426 54.0178 36.9695 54.5 39.303C55.2776 43.0316 55.89 46.7912 56.518 50.545C56.5685 50.8507 56.2011 51.2261 56.028 51.5666C55.7714 51.3247 55.4584 51.1196 55.2776 50.8313C55.1201 50.5779 55.0929 50.2354 55.0404 49.9258C54.5019 46.7931 53.9886 43.6547 53.4229 40.5278C53.2907 39.8042 53.1566 38.9664 52.7113 38.4478C52.3011 37.9679 51.469 37.848 50.8216 37.5693C50.672 38.0357 50.3901 38.502 50.3901 38.9683C50.3589 47.807 50.3356 56.6477 50.3764 65.4865C50.3764 67.1641 50.6117 68.8474 50.8372 70.5173C51.1366 72.725 52.1748 74.3523 54.5719 74.7915C55.074 74.8968 55.5625 75.0584 56.028 75.2733C56.7182 75.5713 57.072 75.4301 57.3326 74.6735C58.4679 71.3687 59.6655 68.0947 60.832 64.788C60.9331 64.4618 60.9412 64.1142 60.8553 63.7837C59.3 57.6616 57.6378 51.5627 56.1641 45.4193C55.404 42.2596 54.8927 39.0341 54.3969 35.8202C54.1228 34.04 54.1228 32.2193 53.975 30.4198C53.8759 29.195 52.8824 29.2375 52.0309 29.1795C51.3135 29.1292 50.46 29.1698 50.4231 30.1257C50.3531 32.1206 50.4075 34.1078 50.4075 36.1646H50.4017ZM53.7515 28.1288C53.7301 27.0221 53.9206 25.8069 52.6686 25.1897C52.2584 24.9962 51.5021 24.9962 51.1619 25.2574C50.2034 25.9907 50.4328 27.0956 50.5009 28.1288H53.7515ZM48.4245 27.8192C48.3876 26.8324 48.8503 25.6676 47.7246 24.9672C47.3766 24.7504 46.6904 24.7737 46.3054 24.9768C45.0612 25.6134 45.2614 26.844 45.1914 27.9702L48.4245 27.8192Z" fill="white"/>
<path d="M7.691 33.6163L7.67739 33.6511L12.7788 35.9111C13.2512 36.1201 13.2921 36.2981 13.0879 36.7528L12.46 38.1595C12.2558 38.6123 12.0711 38.74 11.6084 38.5252L1.84304 34.1968C1.38811 34.0033 1.3609 33.7827 1.54948 33.3647L1.87998 32.6275C2.11911 32.0916 2.32324 31.8536 2.83066 31.7626L10.0045 30.5243L10.0181 30.4914L4.59594 28.0882C4.12546 27.8792 4.09824 27.6664 4.30237 27.2136L4.93227 25.805C5.12669 25.3542 5.29388 25.2632 5.76631 25.4722L15.5336 29.7987C15.9866 29.9922 16.0138 30.2128 15.8272 30.6307L15.4967 31.3679C15.2556 31.9039 15.0359 32.1283 14.5441 32.2328L7.691 33.6163Z" fill="white"/>
<path d="M23.8332 21.1418C23.3063 21.6817 23.1236 21.6313 22.7153 21.4166L21.3233 20.6581L18.8951 23.1425L19.696 24.5066C19.9371 24.9188 19.9779 25.0871 19.4511 25.625L18.3332 26.7686C18.0494 27.0588 17.8297 27.1556 17.6061 26.935C17.5128 26.846 17.4117 26.666 17.0578 26.0469C15.3081 22.92 13.6653 20.0757 12.1975 17.2158C11.902 16.6489 11.9623 16.2716 12.5144 15.7066L13.6809 14.5108C14.233 13.9458 14.6102 13.8742 15.1876 14.1528C18.1038 15.5383 21.02 17.0688 24.2181 18.7231C24.848 19.0521 25.0327 19.1527 25.1241 19.2436C25.3496 19.4604 25.2602 19.6829 24.9783 19.9712L23.8332 21.1418ZM19.2333 19.3752C18.1835 18.7947 16.6457 17.9202 15.4773 17.2739L15.3353 17.419C16.0041 18.58 16.9237 20.0815 17.5497 21.0954L19.2333 19.3752Z" fill="white"/>
<path d="M33.9038 6.88527C34.1448 9.14139 34.3451 11.115 34.4695 12.6417C34.5201 13.2222 34.3198 13.4156 33.7794 13.6401L32.749 14.0851C32.2065 14.3193 31.9344 14.3386 31.5436 13.9052C30.5851 12.8603 29.1387 11.2466 27.7525 9.54579L27.6845 9.57675C28.5788 11.7671 29.5859 14.1142 30.3285 15.8285C30.5346 16.3006 30.4763 16.4457 29.9183 16.6857L28.5574 17.2778C27.9994 17.5196 27.8245 17.4364 27.632 16.9991C26.3411 13.9981 24.9549 10.3178 23.8837 7.39996C23.6174 6.65501 23.7379 6.42282 24.3464 6.1616L25.9698 5.45922C26.763 5.11481 27.1362 5.17672 27.5892 5.7185C29.372 7.86627 30.5638 9.3523 31.8897 10.9177L32.0082 10.8673C31.8138 8.7931 31.5455 6.90655 31.2053 4.15315C31.1198 3.45077 31.3278 3.14118 32.121 2.7987L33.7599 2.09052C34.3704 1.82737 34.6212 1.89702 34.9886 2.5994C36.3981 5.37022 38.1556 8.88985 39.4815 11.8754C39.6759 12.3127 39.6118 12.4985 39.0538 12.7404L37.6676 13.3402C37.1097 13.5821 36.9658 13.524 36.7597 13.0538C36.0112 11.3375 34.973 9.00595 33.9738 6.86205L33.9038 6.88527Z" fill="white"/>
<path d="M51.3388 11.8213C50.5825 11.8367 50.4873 11.6742 50.3492 11.2408L49.8943 9.72767L46.4123 9.79733L46.0235 11.3279C45.903 11.7903 45.8135 11.9374 45.0514 11.9528L43.4475 11.9857C43.0412 11.9857 42.8196 11.9064 42.8118 11.5987C42.8118 11.4691 42.8604 11.2659 43.0509 10.5848C44.0133 7.13294 44.8531 3.96159 45.8233 0.896665C46.0177 0.287163 46.3229 0.0607765 47.1142 0.0452971L48.7978 0.000793735C49.5891 -0.0146857 49.9079 0.194286 50.1218 0.799919C51.2163 3.82421 52.2195 6.96073 53.3199 10.3701C53.5357 11.0434 53.5959 11.2447 53.5979 11.3724C53.5979 11.6839 53.386 11.7806 52.9796 11.7884L51.3388 11.8213ZM49.313 7.35352C48.9747 6.20611 48.4984 4.50917 48.1232 3.23212H47.9288C47.5847 4.52272 47.1764 6.23706 46.9062 7.39802L49.313 7.35352Z" fill="white"/>
<path d="M60.2682 13.7388C59.1818 13.3832 58.152 12.875 57.2101 12.2295C56.8038 11.9277 56.7824 11.6897 56.9418 11.3762L57.6242 10.0218C57.7933 9.67156 58.0383 9.6348 58.3513 9.86699C59.1489 10.4798 60.0386 10.9636 60.9875 11.3008L61.075 11.3279C62.1637 11.6742 62.6303 11.5214 62.8695 10.7996L62.9258 10.6255C63.1591 9.89021 62.8539 9.63867 61.8779 9.11817L60.7542 8.51447C58.8218 7.47929 58.5321 6.26996 59.0687 4.59238L59.2261 4.10284C59.545 3.10635 60.0427 2.45622 60.7309 2.11567C61.6058 1.68225 62.7723 1.72868 64.5278 2.28014L64.6522 2.31884C65.706 2.65358 66.8724 3.23599 67.4907 3.72166C67.8153 3.97707 67.8251 4.19185 67.5723 4.61366L66.8666 5.79397C66.6897 6.10355 66.4681 6.13064 66.122 5.88491C65.4502 5.40664 64.7077 5.03522 63.9212 4.78393L63.8512 4.76071C62.6731 4.38727 62.2454 4.52078 62.0432 5.1477L61.9927 5.30636C61.8138 5.86556 62.0043 6.1171 62.8422 6.57568L64.0943 7.26258C66.0015 8.30937 66.5439 9.15493 65.8615 11.2872L65.7273 11.7071C64.9886 14.0135 63.4605 14.743 60.4782 13.7949L60.2682 13.7388Z" fill="white"/>
<path d="M73.1636 8.86469C72.7748 8.58994 72.7457 8.43708 73.0023 8.07718L73.7994 6.95299C74.0755 6.566 74.2193 6.55246 74.6101 6.82722L81.1015 11.3859C81.4904 11.6626 81.5293 11.8 81.2532 12.1908L80.4561 13.315C80.2014 13.6749 80.0478 13.702 79.6551 13.4253L77.6818 12.0399L72.5901 19.2204C72.3257 19.5939 72.1605 19.6364 71.6939 19.3075L70.263 18.3033C69.7964 17.9743 69.7789 17.806 70.0453 17.4326L75.1369 10.2559L73.1636 8.86469Z" fill="white"/>
<path d="M82.5908 23.0264C82.0403 23.4398 81.5156 23.8863 81.0199 24.3635C80.9804 24.3939 80.9482 24.4327 80.9255 24.477C80.9028 24.5212 80.8902 24.5699 80.8885 24.6196C80.8868 24.6693 80.8962 24.7187 80.9159 24.7644C80.9355 24.8101 80.9651 24.8509 81.0024 24.884L83.3898 27.9798C83.7378 28.4307 83.7125 28.5178 83.3179 28.8196L82.2369 29.6516C81.887 29.9186 81.7509 29.9535 81.4029 29.5026L78.7025 25.9927C77.6041 24.5666 77.4058 23.6708 78.545 22.624C79.3713 21.85 80.3239 21.105 81.2901 20.3678L82.1825 19.6887C82.8124 19.2088 83.7378 18.5277 84.6049 17.9801C86.2127 16.9624 87.0117 17.2758 88.1996 18.8199L90.8786 22.3028C91.2383 22.7691 91.1741 22.8387 90.795 23.129L89.6985 23.9668C89.3467 24.2338 89.2475 24.2861 88.8898 23.8197L86.5121 20.7239C86.3177 20.4626 86.1563 20.4414 85.9405 20.5826C85.6353 20.7916 84.9821 21.2676 84.4571 21.643L86.8232 24.7156C87.1031 25.0794 87.1089 25.238 86.7571 25.5051L85.7344 26.279C85.4273 26.5132 85.2601 26.4725 84.9801 26.1126L82.5908 23.0264Z" fill="white"/>
<path d="M84.6224 36.2014C84.4688 35.7699 84.5466 35.6054 84.9645 35.4583L87.7427 34.4735C89.3214 32.7649 91.8254 30.4353 94.0223 28.8989C94.3858 28.6551 94.5958 28.7054 94.7124 29.0247L95.3618 30.8397C95.5406 31.3408 95.6087 31.4724 95.2121 31.7297C93.8706 32.6333 91.9945 34.0516 90.83 35.0191L90.8611 35.1062C92.3775 35.1333 94.7183 35.0036 96.33 34.8624C96.8004 34.8121 96.8335 34.9553 97.0123 35.4564L97.6442 37.2191C97.7608 37.5481 97.6247 37.7125 97.1873 37.7512C94.5161 37.9447 91.1138 37.7222 88.8042 37.3913L86.0085 38.382C85.5925 38.531 85.4253 38.4517 85.2717 38.0202L84.6224 36.2014Z" fill="white"/>
<path d="M26.0884 95.1818H26.0242V104.905C26.0242 105.803 25.7656 105.996 24.8966 105.996H22.1865C21.3174 105.996 20.9947 105.803 20.9947 104.905V86.2986C20.9947 85.4317 21.3174 85.2382 22.1223 85.2382H23.5415C24.5739 85.2382 25.0968 85.3988 25.6043 86.138L32.6984 96.6639H32.7626V86.3237C32.7626 85.4259 33.0853 85.2324 33.9563 85.2324H36.6645C37.5354 85.2324 37.794 85.4259 37.794 86.3237V104.938C37.794 105.803 37.4713 105.996 36.6645 105.996H35.2452C34.2148 105.996 33.6899 105.803 33.1825 105.096L26.0884 95.1818Z" fill="white"/>
<path d="M49.21 97.6198V104.973C49.21 105.872 49.0155 106 48.0163 106H44.9854C43.9861 106 43.7936 105.872 43.7936 104.973V88.9881C43.7936 87.415 43.9219 86.9022 44.6957 86.0683C45.1798 85.5536 46.146 85.2324 47.6294 85.2324H56.4655C57.4375 85.2324 57.56 85.5226 57.56 86.2598V88.5702C57.56 89.3731 57.3345 89.5976 56.4655 89.5976H49.694C49.3713 89.5976 49.21 89.7253 49.21 90.0794V93.5778H55.6256C56.4655 93.5778 56.6249 93.7364 56.6249 94.5704V96.6582C56.6249 97.4321 56.4655 97.6256 55.6256 97.6256L49.21 97.6198Z" fill="white"/>
<path d="M62.0762 89.5976C61.2383 89.5976 61.0439 89.4041 61.0439 88.6301V86.227C61.0439 85.393 61.2383 85.2324 62.0762 85.2324H75.9729C76.8108 85.2324 77.0053 85.393 77.0053 86.227V88.634C77.0053 89.408 76.8108 89.6015 75.9729 89.6015H71.7503V104.973C71.7503 105.776 71.5559 106 70.5566 106H67.4926C66.4933 106 66.3008 105.776 66.3008 104.973V89.5976H62.0762Z" fill="white"/>
<path d="M1.89553 54.8444C1.89553 53.6615 1.9409 52.4799 2.03162 51.2996C2.16577 49.533 2.36407 47.7741 2.85982 46.0753C2.93759 45.8121 3.00563 45.5374 3.10867 45.2839C3.17218 45.1349 3.24759 44.9913 3.33419 44.8543L5.39303 45.1794L3.91938 43.7108L4.86034 41.8552L3.00175 42.7975L1.52615 41.3289L1.85276 43.3799L0 44.3222C0.00972068 44.3222 0.0505475 44.3222 0.0602682 44.3319C0.727107 44.4364 1.392 44.5506 2.06078 44.6454C2.08397 44.8068 2.09437 44.9699 2.09189 45.133C2.09189 45.3574 2.07634 45.5799 2.06467 45.8044C2.0508 46.2514 2.01055 46.6972 1.94414 47.1395C1.81453 47.9018 1.7063 48.6681 1.61946 49.4382C1.40954 51.2327 1.30438 53.0378 1.30452 54.8444C1.30358 61.8552 2.86839 68.7786 5.88575 75.1136C8.9031 81.4487 13.2975 87.0371 18.7512 91.4745L18.1679 90.7005C7.86403 82.1152 1.89553 69.2286 1.89553 54.8444Z" fill="white"/>
<path d="M96.1045 54.8444C96.1045 53.6615 96.0591 52.4799 95.9684 51.2996C95.8342 49.533 95.6359 47.7741 95.1402 46.0753C95.0624 45.8121 94.9944 45.5374 94.8913 45.2839C94.8278 45.1349 94.7524 44.9913 94.6658 44.8543L92.607 45.1794L94.0806 43.7108L93.1338 41.8629L94.9924 42.8053L96.468 41.3367L96.1414 43.3877L98 44.33C97.9903 44.33 97.9495 44.33 97.9397 44.3397C97.2729 44.4441 96.608 44.5583 95.9392 44.6531C95.9154 44.8145 95.9043 44.9776 95.9062 45.1407C95.9159 45.3652 95.9237 45.5877 95.9353 45.8121C95.9492 46.2591 95.9894 46.7049 96.0559 47.1472C96.1855 47.9096 96.2937 48.6758 96.3805 49.4459C96.5905 51.2404 96.6956 53.0455 96.6955 54.8521C96.6964 61.8629 95.1316 68.7863 92.1143 75.1214C89.0969 81.4564 84.7024 87.0448 79.2488 91.4822L79.832 90.7082C90.134 82.1152 96.1045 69.2286 96.1045 54.8444Z" fill="white"/>
</svg>
