<?xml version="1.0" standalone="no"?>
<!DOCTYPE svg PUBLIC "-//W3C//DTD SVG 20010904//EN"
 "http://www.w3.org/TR/2001/REC-SVG-20010904/DTD/svg10.dtd">
<svg version="1.0" xmlns="http://www.w3.org/2000/svg"
 width="1000.000000pt" height="1000.000000pt" viewBox="0 0 1000.000000 1000.000000"
 preserveAspectRatio="xMidYMid meet">
<metadata>
Created by potrace 1.14, written by Peter Selinger 2001-2017
</metadata>
<g transform="translate(0.000000,1000.000000) scale(0.100000,-0.100000)"
fill="#000000" stroke="none">
<path d="M4478 9980 c-167 -57 -277 -186 -327 -382 -21 -82 -26 -119 -46 -383
-7 -97 -18 -331 -19 -412 -1 -46 -3 -83 -6 -83 -4 0 -9 -103 -14 -282 0 -32
-3 -58 -6 -58 -3 0 -5 -26 -6 -58 -1 -50 -6 -119 -18 -232 -10 -94 -19 -167
-22 -185 -2 -11 -6 -38 -9 -60 -3 -22 -8 -53 -11 -70 -2 -16 -7 -43 -9 -60 -2
-16 -15 -79 -29 -140 -14 -60 -27 -123 -30 -140 -3 -16 -10 -45 -15 -63 -5
-18 -10 -33 -9 -35 0 -3 -13 -76 -18 -97 -2 -8 -12 -57 -23 -108 -27 -124
-109 -477 -122 -527 -6 -22 -12 -51 -14 -65 -2 -14 -4 -25 -5 -25 -1 0 -4 -13
-6 -30 -3 -16 -9 -35 -15 -41 -5 -6 -7 -13 -4 -15 2 -3 -1 -22 -6 -44 -5 -22
-12 -51 -15 -65 -6 -27 -8 -32 -17 -70 -9 -35 -48 -202 -52 -220 -2 -8 -8 -35
-15 -60 -7 -25 -14 -54 -16 -65 -3 -17 -15 -71 -19 -85 -17 -59 -48 -196 -48
-207 0 -7 -3 -13 -7 -13 -3 0 -6 -10 -7 -22 0 -13 -12 -70 -28 -128 -15 -58
-28 -112 -30 -120 -2 -8 -18 -73 -36 -145 -18 -71 -33 -141 -35 -155 -1 -14
-3 -26 -4 -27 -2 -2 -4 -7 -5 -13 -1 -5 -4 -12 -5 -15 -3 -7 -5 -14 -15 -60
-13 -56 -12 -55 -15 -57 -1 -3 -3 -7 -13 -58 -3 -14 -18 -72 -32 -130 -15 -58
-29 -113 -30 -123 -2 -9 -11 -44 -19 -78 -9 -33 -18 -74 -21 -91 -3 -17 -8
-34 -10 -38 -2 -4 -7 -20 -10 -36 -3 -16 -14 -65 -25 -109 -12 -44 -23 -89
-25 -100 -3 -11 -18 -76 -36 -145 -17 -69 -32 -134 -33 -145 -2 -11 -6 -27 -9
-35 -5 -14 -8 -27 -22 -95 -16 -81 -48 -198 -65 -239 -23 -57 -96 -156 -115
-156 -7 0 -15 -6 -18 -12 -8 -21 -103 -64 -272 -124 -88 -31 -169 -58 -180
-61 -11 -3 -27 -7 -35 -11 -8 -3 -17 -6 -20 -7 -3 -1 -12 -4 -20 -8 -8 -3 -42
-15 -75 -26 -93 -31 -268 -92 -285 -98 -8 -3 -19 -7 -25 -9 -8 -2 -248 -86
-313 -109 -7 -2 -16 -5 -20 -6 -4 -1 -18 -6 -32 -11 -43 -17 -244 -89 -255
-92 -5 -1 -14 -4 -20 -8 -5 -3 -26 -10 -45 -16 -51 -15 -368 -127 -414 -146
-22 -9 -41 -14 -44 -12 -2 3 -17 -1 -33 -9 -15 -8 -61 -26 -101 -39 -40 -13
-113 -38 -163 -56 -49 -18 -94 -33 -100 -35 -5 -1 -19 -5 -30 -9 -110 -41
-148 -72 -173 -141 -17 -47 -18 -113 -17 -1045 0 -975 1 -996 20 -1029 11 -19
29 -39 40 -45 11 -6 22 -14 25 -18 3 -4 29 -9 58 -11 29 -2 55 -7 58 -10 4 -3
15 -2 25 4 11 5 19 6 19 1 0 -10 42 -8 59 2 5 4 12 2 16 -4 4 -7 12 -7 25 0
12 6 21 7 25 0 4 -6 15 -6 31 0 18 7 23 7 18 -2 -4 -6 -3 -8 4 -5 10 7 30 8
132 7 25 -1 57 1 73 3 15 2 27 0 27 -5 0 -5 6 -6 12 -2 19 12 48 12 48 1 0 -6
5 -6 13 0 6 5 23 8 37 6 14 -2 31 -3 38 -3 18 0 70 0 85 0 6 0 32 1 57 3 25 2
51 -1 58 -6 6 -5 12 -6 12 -1 0 5 74 9 165 9 91 0 165 -4 165 -8 0 -5 6 -5 13
0 6 4 572 8 1257 9 1161 1 1395 4 1412 22 5 5 -64 203 -99 282 -3 8 -7 17 -8
20 -1 3 -9 22 -18 44 -9 21 -15 42 -12 46 3 5 1 11 -4 14 -5 4 -17 30 -27 59
-9 28 -20 57 -24 62 -4 6 -13 26 -18 45 -6 19 -36 100 -67 179 -30 80 -52 148
-48 151 6 6 137 52 178 64 6 1 30 9 55 16 25 7 50 14 55 15 53 12 253 88 328
126 20 10 37 15 37 11 0 -4 4 -2 8 4 4 6 32 27 62 46 58 37 138 111 180 167
14 18 32 40 41 49 9 10 46 64 84 122 139 214 190 289 194 284 3 -3 6 -12 7
-22 2 -9 6 -35 9 -57 7 -49 10 -65 18 -85 3 -8 8 -28 12 -45 17 -78 109 -230
185 -305 29 -29 115 -99 145 -118 86 -54 301 -147 420 -182 22 -6 47 -14 55
-17 17 -7 14 -6 90 -28 62 -18 59 -17 120 -34 68 -19 110 -34 110 -41 0 -6
-33 -101 -105 -295 -20 -55 -38 -107 -40 -115 -2 -8 -10 -31 -18 -50 -8 -19
-37 -100 -64 -180 -66 -191 -62 -225 27 -247 19 -5 641 -9 1382 -8 761 0 1348
-4 1348 -9 0 -5 6 -4 13 1 14 10 217 10 235 -1 7 -4 12 -3 12 1 0 5 24 7 53 6
28 -2 58 -3 65 -3 6 0 26 0 42 0 17 0 37 0 45 0 8 0 29 0 45 0 17 0 37 0 45 0
8 0 22 0 30 0 8 0 21 0 28 -1 6 0 24 2 40 4 15 2 27 0 27 -6 0 -6 4 -6 13 1 6
5 21 6 32 2 11 -4 30 -4 42 1 13 5 25 4 28 -2 4 -5 10 -7 15 -4 4 3 23 7 41
10 82 12 95 19 120 73 22 44 23 55 22 333 -1 159 -4 293 -8 299 -3 5 -1 10 5
10 6 0 8 5 4 11 -9 15 -11 159 -2 159 4 0 5 7 1 16 -9 24 -9 414 0 414 5 0 5
5 1 11 -8 14 -8 128 0 136 3 3 1 14 -4 24 -7 12 -7 20 0 24 6 4 7 11 4 17 -4
6 -6 45 -4 87 1 42 2 177 3 301 0 210 -1 228 -21 272 -28 60 -76 99 -165 133
-40 15 -84 33 -99 41 -14 8 -31 14 -36 14 -6 0 -23 5 -39 12 -15 6 -31 12 -35
13 -5 2 -10 4 -13 5 -3 1 -8 3 -12 5 -5 1 -15 4 -23 8 -8 3 -46 17 -85 31 -38
13 -108 39 -155 56 -47 17 -89 33 -95 34 -5 2 -19 7 -30 11 -107 43 -135 53
-135 49 0 -2 -19 5 -42 17 -24 12 -44 21 -45 21 -4 -2 -29 7 -113 38 -143 54
-175 65 -182 62 -5 -1 -8 2 -8 8 0 6 -3 9 -7 9 -5 -1 -11 0 -15 1 -5 1 -11 3
-15 5 -5 1 -15 4 -23 8 -25 10 -474 178 -485 181 -5 2 -19 6 -30 10 -11 5 -33
12 -50 18 -16 5 -39 14 -50 18 -11 4 -47 18 -80 30 -33 12 -69 26 -80 32 -12
5 -27 10 -35 12 -8 2 -28 8 -43 14 -16 7 -34 12 -41 12 -7 0 -21 7 -32 15 -10
8 -26 14 -34 15 -40 0 -175 66 -215 104 -43 41 -80 103 -89 147 -2 13 -7 31
-10 39 -3 8 -8 26 -10 40 -3 14 -17 66 -31 115 -14 50 -28 97 -30 105 -2 8
-13 47 -25 85 -11 39 -22 77 -24 85 -3 13 -9 35 -32 115 -91 319 -123 437
-129 465 -2 8 -8 33 -14 55 -6 22 -12 51 -15 65 -2 14 -5 26 -7 28 -1 1 -2 5
-3 10 -3 11 -29 126 -32 137 -1 6 -13 57 -28 115 -14 58 -28 114 -30 125 -2
11 -16 66 -30 121 -14 56 -28 112 -30 125 -3 13 -5 24 -6 24 -2 0 -4 12 -13
55 -3 14 -8 32 -11 40 -3 8 -8 26 -10 40 -3 14 -21 90 -42 170 -20 80 -37 155
-37 168 -1 12 -4 22 -8 22 -4 0 -9 15 -12 33 -5 30 -16 89 -22 112 -1 6 -5 17
-8 25 -5 14 -24 94 -32 136 -2 11 -4 19 -5 19 -2 0 -5 14 -13 55 -3 14 -14 64
-26 112 -20 86 -26 111 -36 166 -3 15 -8 35 -11 44 -5 18 -13 50 -20 88 -2 14
-11 57 -20 95 -14 64 -20 93 -29 152 -2 11 -6 31 -10 43 -4 12 -8 32 -10 43
-2 20 -16 97 -30 167 -7 37 -24 130 -30 170 -3 19 -7 46 -10 60 -3 14 -7 41
-10 60 -3 19 -7 46 -10 60 -3 14 -7 43 -10 65 -3 22 -7 51 -9 65 -3 14 -7 48
-11 75 -3 28 -7 64 -10 80 -16 107 -34 274 -51 485 -5 61 -10 141 -19 305 -3
61 -8 126 -10 145 -2 19 -6 73 -10 120 -3 47 -8 103 -10 125 -3 22 -7 72 -10
110 -8 95 -16 199 -29 360 -19 223 -65 336 -186 452 -22 22 -155 102 -155 94
0 -1 -22 6 -50 16 -152 57 -329 9 -474 -126 -30 -28 -57 -51 -59 -51 -2 0 -30
22 -61 49 -100 87 -198 142 -296 168 -57 15 -182 11 -237 -7z m292 -242 c86
-56 119 -134 114 -273 -7 -179 -8 -195 -19 -196 -34 -4 -253 -15 -444 -23
l-94 -4 6 127 c7 129 15 179 36 219 6 12 9 22 6 22 -9 0 15 29 68 81 90 89
231 109 327 47z m780 -12 c26 -4 53 -17 102 -50 66 -43 116 -142 123 -245 2
-40 7 -76 10 -81 3 -5 2 -11 -3 -14 -4 -3 -5 -30 -2 -60 5 -46 3 -56 -9 -57
-9 -1 -134 -2 -278 -3 -228 -1 -263 1 -264 14 -16 170 -12 287 11 331 5 9 6
19 3 23 -3 3 -1 6 5 6 7 0 12 6 12 13 0 18 69 92 100 108 47 24 103 28 190 15z
m-807 -657 c10 -2 19 -5 49 -13 30 -9 67 -53 83 -99 12 -36 13 -355 1 -375 -4
-7 -3 -12 2 -12 9 0 7 -88 -2 -97 -2 -3 -1 -15 4 -27 4 -13 4 -29 -1 -39 -6
-9 -6 -17 -2 -17 5 0 8 -12 7 -27 -1 -16 -3 -28 -4 -28 -1 0 -3 -8 -5 -17 -2
-10 0 -18 3 -18 4 0 7 -20 7 -45 0 -25 -4 -45 -9 -45 -5 0 -4 -6 1 -12 11 -15
11 -67 0 -85 -5 -7 -4 -13 1 -13 10 0 8 -132 -2 -148 -3 -6 -2 -13 3 -17 13
-7 5 -46 -11 -57 -7 -4 -24 -8 -38 -9 -14 0 -34 -2 -45 -5 -19 -4 -78 -13
-120 -18 -92 -11 -208 -70 -277 -140 -53 -53 -129 -162 -153 -219 -7 -17 -17
-36 -22 -40 -4 -5 -9 -12 -9 -15 -5 -24 -17 -52 -23 -52 -3 0 -6 14 -6 30 0
17 2 30 5 30 3 0 6 28 6 63 1 34 4 87 8 117 3 30 8 100 12 155 3 55 8 116 9
135 2 19 6 80 10 135 4 55 9 116 11 135 2 19 5 64 8 100 3 36 7 92 10 125 3
33 8 89 11 125 11 121 16 165 20 190 2 14 6 59 10 100 4 41 11 92 17 112 22
77 94 127 186 131 17 1 32 4 32 7 0 4 194 4 213 -1z m877 -42 c65 -8 117 -33
150 -71 14 -17 25 -32 25 -35 0 -3 4 -12 8 -18 13 -20 20 -110 42 -513 7 -125
23 -322 30 -360 3 -14 7 -45 10 -70 3 -25 9 -70 14 -100 9 -49 16 -94 26 -170
2 -14 9 -53 16 -88 6 -35 9 -66 6 -69 -4 -3 -2 -13 3 -22 4 -9 11 -37 15 -61
3 -25 8 -58 11 -75 3 -16 7 -43 10 -60 6 -36 10 -61 17 -100 5 -26 19 -103 42
-230 3 -16 8 -41 11 -55 3 -13 7 -40 10 -60 2 -19 7 -43 10 -52 6 -20 12 -52
19 -93 2 -16 11 -61 20 -100 20 -93 27 -127 28 -142 0 -7 4 -13 8 -13 5 0 6
-7 3 -15 -4 -8 -1 -22 6 -30 7 -8 10 -15 7 -15 -3 0 -1 -17 4 -37 5 -21 12
-48 15 -61 2 -13 16 -69 30 -125 14 -56 27 -109 29 -117 1 -8 10 -42 18 -74 9
-33 14 -63 11 -67 -2 -4 0 -10 6 -14 5 -3 10 -19 10 -36 0 -16 4 -29 9 -29 5
0 8 -11 6 -25 -1 -14 2 -25 7 -25 5 0 7 -4 4 -9 -5 -7 -1 -23 22 -91 3 -8 4
-21 3 -27 -1 -7 2 -13 6 -13 4 0 9 -10 9 -22 1 -13 4 -32 7 -43 3 -11 19 -76
36 -145 18 -69 36 -138 41 -155 5 -16 12 -41 14 -55 5 -23 33 -132 40 -155 1
-5 6 -28 11 -50 4 -22 14 -54 21 -71 7 -17 10 -34 7 -37 -3 -4 0 -13 7 -22 7
-8 10 -15 7 -15 -3 0 -1 -15 4 -32 6 -18 12 -40 14 -48 2 -8 13 -49 24 -90 12
-41 23 -84 25 -95 1 -11 6 -30 10 -42 7 -23 8 -25 31 -123 9 -36 20 -75 26
-87 6 -11 9 -25 6 -30 -2 -4 0 -19 6 -33 5 -14 11 -31 13 -38 1 -7 14 -58 29
-114 15 -56 29 -109 31 -117 2 -9 15 -59 29 -111 14 -52 28 -106 31 -118 2
-13 12 -49 20 -80 8 -32 17 -64 19 -72 2 -8 27 -105 55 -215 77 -298 77 -296
73 -355 -3 -58 -3 -58 -36 -145 -6 -16 -12 -34 -13 -40 -2 -5 -23 -66 -49
-135 -26 -69 -48 -129 -49 -135 -2 -5 -9 -23 -15 -40 -7 -16 -14 -38 -16 -47
-2 -9 -8 -25 -13 -35 -6 -10 -10 -22 -10 -26 0 -8 -27 -86 -42 -122 -5 -11
-19 -49 -30 -85 -12 -36 -26 -74 -30 -85 -18 -46 -35 -91 -37 -100 -1 -5 -14
-41 -28 -80 -15 -38 -28 -77 -30 -85 -3 -8 -25 -73 -51 -145 -46 -131 -53
-149 -55 -163 0 -4 -5 -13 -11 -19 -6 -7 -7 -13 -3 -13 4 0 3 -6 -2 -13 -11
-13 -27 -67 -25 -79 1 -5 -2 -8 -6 -8 -5 0 -9 -6 -9 -12 -1 -17 -51 -155 -69
-189 -38 -75 -98 -83 -231 -31 -135 52 -121 48 -228 72 -134 29 -196 54 -295
119 -94 61 -182 166 -236 282 -35 74 -78 230 -89 319 -3 25 -7 54 -9 66 -2 11
-7 47 -10 80 -4 32 -9 79 -12 104 -4 25 -8 61 -9 80 -2 19 -4 35 -5 35 -5 0
-19 174 -27 325 -8 153 -7 4609 1 4665 7 51 10 64 23 95 20 45 38 95 38 105 1
6 7 9 15 7 35 -6 205 -68 208 -74 2 -5 12 -8 23 -8 10 0 19 -4 19 -10 0 -5 6
-10 13 -10 7 0 25 -12 38 -27 76 -84 101 -164 163 -528 3 -16 7 -41 11 -55 5
-23 8 -43 20 -125 3 -16 7 -41 10 -55 3 -14 8 -41 11 -60 3 -19 23 -134 44
-255 21 -121 42 -240 45 -265 8 -51 13 -75 15 -75 1 0 3 -11 5 -25 1 -14 6
-47 10 -75 5 -27 9 -60 9 -72 1 -13 4 -23 7 -23 3 0 6 -6 6 -12 0 -18 9 -77
28 -183 18 -100 21 -117 31 -193 4 -29 11 -55 15 -58 5 -3 9 -13 9 -23 0 -17
60 -86 108 -123 21 -17 52 -15 52 3 0 4 14 30 30 56 35 54 35 69 5 243 -9 52
-18 109 -21 125 -2 17 -6 41 -9 55 -10 51 -26 143 -30 173 -3 18 -9 57 -15 87
-6 30 -13 78 -16 105 -3 28 -9 55 -12 60 -4 6 -7 24 -8 40 -1 17 -3 31 -4 33
-1 1 -3 10 -4 20 -2 17 -14 88 -21 127 -2 11 -4 20 -5 20 -1 0 -3 9 -4 20 -2
11 -9 54 -16 95 -7 41 -14 84 -16 95 -1 11 -3 20 -4 20 -1 0 -3 11 -6 25 -4
23 -37 199 -49 260 -2 14 -8 39 -11 55 -4 17 -8 41 -10 55 -1 14 -3 25 -4 25
-1 0 -4 11 -6 25 -31 172 -76 364 -94 400 -4 8 -18 38 -31 65 -30 63 -34 68
-91 126 -47 48 -165 112 -223 122 -17 3 -37 7 -45 10 -14 5 -47 11 -125 22
-16 2 -51 5 -77 6 -26 1 -49 8 -52 14 -2 7 -4 244 -4 526 0 495 1 515 21 554
38 76 87 94 247 89 63 -2 126 -6 140 -7z m-743 -1429 c10 -8 10 -14 2 -24 -6
-8 -7 -14 -2 -14 11 0 11 -70 0 -87 -5 -7 -4 -13 1 -13 12 0 9 -83 -3 -92 -7
-5 -7 -11 0 -15 12 -9 13 -82 2 -101 -5 -6 -4 -12 0 -12 11 0 10 -70 0 -87 -5
-7 -4 -13 1 -13 10 0 8 -62 -3 -81 -6 -8 -4 -10 6 -4 12 8 12 6 0 -8 -7 -9 -9
-17 -4 -17 10 0 10 -80 -1 -98 -4 -7 -3 -12 2 -12 7 0 9 -67 2 -95 -1 -5 -1
-14 0 -20 6 -29 4 -71 -5 -77 -7 -5 -7 -10 0 -15 12 -9 14 -93 2 -93 -4 0 -5
-6 0 -12 11 -19 10 -118 -2 -118 -7 0 -7 -3 0 -8 6 -4 10 -20 10 -37 0 -16 -4
-33 -10 -37 -7 -5 -7 -10 0 -15 12 -9 14 -93 2 -93 -4 0 -5 -6 0 -12 11 -19
10 -118 -2 -118 -7 0 -7 -3 0 -8 6 -4 10 -20 10 -37 0 -16 -4 -33 -10 -37 -7
-5 -7 -10 0 -15 12 -9 14 -93 2 -93 -4 0 -5 -6 0 -12 11 -19 10 -118 -2 -118
-7 0 -7 -3 0 -8 12 -9 14 -72 2 -72 -4 0 -5 -5 -2 -10 11 -17 12 -100 2 -100
-6 0 -6 -5 0 -12 5 -7 8 -68 6 -138 -4 -148 -4 -155 0 -245 2 -41 -1 -73 -7
-77 -8 -5 -8 -8 0 -8 11 0 12 -79 0 -98 -4 -7 -4 -12 1 -12 4 0 8 -11 8 -25 0
-14 -4 -25 -8 -25 -5 0 -5 -6 0 -12 11 -19 10 -112 -2 -121 -7 -6 -7 -10 0
-13 6 -2 9 -38 7 -86 -1 -46 -2 -87 -3 -93 0 -5 2 -29 3 -53 2 -23 -1 -42 -5
-42 -5 0 -5 -6 0 -12 10 -17 10 -76 1 -105 -4 -13 -4 -23 0 -23 9 0 6 -105 -4
-121 -5 -8 -3 -10 7 -4 12 8 12 6 0 -8 -7 -9 -10 -17 -5 -17 10 0 11 -51 0
-68 -3 -6 -3 -13 2 -16 9 -5 9 -47 -1 -63 -4 -7 -3 -14 2 -17 8 -5 6 -57 -4
-83 -2 -7 -1 -15 4 -17 9 -6 8 -37 -3 -54 -4 -6 -3 -12 2 -12 8 0 7 -63 -2
-86 -3 -7 -2 -15 1 -18 9 -9 9 -67 0 -73 -4 -2 -3 -13 3 -23 7 -13 7 -21 0
-25 -8 -5 -8 -11 -1 -19 6 -7 8 -16 4 -19 -7 -8 -8 -95 0 -103 3 -3 2 -17 -3
-30 -6 -16 -6 -24 1 -24 6 0 7 -5 4 -10 -4 -6 -8 -232 -11 -503 -2 -271 -5
-508 -7 -527 -3 -19 -8 -62 -11 -95 -4 -33 -9 -71 -11 -85 -41 -272 -41 -273
-50 -299 -3 -10 -7 -35 -10 -57 -8 -71 -17 -117 -30 -155 -8 -20 -11 -40 -8
-43 4 -3 1 -6 -5 -6 -7 0 -11 -3 -10 -7 5 -18 -55 -122 -99 -172 -48 -55 -157
-141 -179 -141 -7 0 -14 -5 -16 -11 -2 -5 -10 -11 -18 -13 -8 -1 -32 -10 -52
-19 -48 -20 -301 -101 -310 -99 -4 1 -19 -3 -33 -8 -13 -5 -52 -12 -86 -16
-119 -13 -177 27 -249 172 -22 45 -40 84 -40 88 0 3 -9 25 -19 49 -11 23 -34
78 -51 122 -17 44 -36 91 -43 105 -6 14 -11 27 -11 30 -1 6 -25 66 -42 105 -7
17 -27 66 -44 110 -17 44 -35 90 -40 103 -6 12 -14 32 -20 45 -5 12 -19 47
-30 77 -11 30 -24 64 -29 75 -25 57 -71 182 -71 193 0 6 -4 12 -9 12 -5 0 -13
17 -19 38 -5 20 -31 91 -57 157 -26 66 -53 138 -60 161 -17 54 -16 183 2 242
8 26 17 58 19 72 3 14 11 46 19 73 8 26 11 47 8 47 -3 0 0 7 7 15 7 8 10 15 7
15 -3 0 1 20 9 45 7 25 10 45 7 45 -3 0 0 7 7 15 7 9 10 18 7 22 -4 3 -2 12 4
20 6 7 9 13 6 13 -3 0 -1 15 4 33 6 17 12 43 15 57 2 14 7 32 11 40 3 8 9 31
13 50 5 19 27 107 49 195 23 88 43 169 45 180 3 11 5 20 6 20 1 0 3 9 5 19 5
27 36 148 42 166 3 8 7 22 8 30 1 8 23 96 49 195 26 99 49 191 52 205 3 14 11
46 19 72 7 25 11 49 8 52 -4 3 -2 6 3 6 5 0 10 8 10 18 2 33 15 86 24 98 6 6
7 14 4 17 -3 3 -2 11 2 18 4 7 9 22 10 34 1 11 25 107 53 214 28 107 53 204
56 215 2 12 8 36 14 54 5 17 8 32 5 32 -3 0 0 8 5 18 6 11 12 30 15 43 8 41
13 61 36 149 12 47 24 95 26 107 2 12 9 34 14 49 6 15 8 29 5 32 -2 3 -1 10 4
16 6 6 12 25 15 41 2 17 5 30 6 30 2 0 5 14 14 53 3 13 7 31 10 40 3 9 7 28
10 42 3 14 10 43 16 65 6 22 12 47 14 55 5 19 75 290 81 310 5 20 36 151 40
170 2 8 4 16 5 18 2 1 4 7 5 12 1 6 3 11 4 13 2 1 4 13 7 27 2 14 7 32 11 40
3 8 7 22 8 30 1 8 6 29 10 45 4 17 9 42 12 58 3 15 10 27 15 27 5 0 7 4 4 9
-3 4 -1 23 5 42 5 19 12 43 14 53 3 11 8 23 13 28 4 4 -7 -80 -25 -188 -18
-108 -32 -199 -31 -203 0 -3 -1 -8 -2 -11 -3 -10 -9 -45 -15 -90 -3 -25 -7
-52 -10 -60 -2 -8 -6 -35 -9 -60 -3 -25 -8 -56 -11 -70 -3 -14 -7 -38 -9 -55
-5 -33 -12 -81 -26 -165 -5 -30 -12 -71 -15 -90 -3 -19 -7 -46 -10 -60 -2 -14
-7 -45 -10 -70 -3 -25 -9 -54 -12 -64 -3 -10 -6 -33 -8 -50 -1 -17 -5 -47 -9
-66 -3 -19 -8 -48 -11 -65 -3 -16 -8 -46 -11 -65 -7 -52 -25 -155 -38 -217 -1
-7 -5 -15 -8 -18 -10 -10 1 -108 13 -116 6 -3 10 -9 9 -13 -1 -4 10 -31 25
-62 18 -36 31 -52 39 -47 55 35 106 83 117 113 15 40 15 40 23 100 4 25 10 54
13 65 3 11 7 31 9 45 1 14 5 39 9 55 12 64 24 132 31 170 3 22 8 51 10 65 3
14 7 39 9 55 2 17 7 41 10 55 3 14 10 54 15 90 6 36 13 75 15 88 11 54 26 137
31 177 2 17 6 41 9 55 3 14 8 43 11 65 7 43 11 67 14 75 1 3 2 8 1 13 -1 4 3
26 8 50 5 23 12 60 15 82 11 72 26 159 36 205 5 25 12 61 15 80 3 19 17 85 31
145 14 61 27 117 29 125 16 72 40 151 57 188 39 82 115 141 193 150 22 2 41 5
43 7 8 8 158 -7 169 -17z m-730 -370 c-3 -7 -5 -2 -5 12 0 14 2 19 5 13 2 -7
2 -19 0 -25z"/>
</g>
</svg>
